<?xml version="1.0" encoding="UTF-8" standalone="no"?>
<!DOCTYPE svg PUBLIC "-//W3C//DTD SVG 1.1//EN" "http://www.w3.org/Graphics/SVG/1.1/DTD/svg11.dtd">
<svg width="100%" height="100%" viewBox="0 0 1733 639" version="1.1" xmlns="http://www.w3.org/2000/svg" xmlns:xlink="http://www.w3.org/1999/xlink" xml:space="preserve" xmlns:serif="http://www.serif.com/" style="fill-rule:evenodd;clip-rule:evenodd;stroke-miterlimit:10;">
    <g transform="matrix(1,0,0,1,-889.725738,-918.531269)">
        <g id="レイヤー-1" serif:id="レイヤー 1" transform="matrix(4.166667,0,0,4.166667,944.7593,962.619788)">
            <g id="レイヤー-11" serif:id="レイヤー 1">
            </g>
            <g id="レイヤー-12" serif:id="レイヤー 1">
                <g transform="matrix(1,0,0,1,388.4053,38.358)">
                    <path d="M0,80.511C0,87.138 -5.373,92.511 -12,92.511L-104,92.511C-110.627,92.511 -116,87.138 -116,80.511L-116,0C-116,-6.627 -110.627,-12 -104,-12L-12,-12C-5.373,-12 0,-6.627 0,0L0,80.511ZM-56.875,78.907L-56.875,65.825L-19.133,65.825L-19.133,62.716L-56.875,62.716L-56.875,54.462L-60.09,54.462L-60.09,62.716L-96.866,62.716L-96.866,65.825L-60.09,65.825L-60.09,78.907L-106.732,78.907L-106.732,82.016L-9.698,82.016L-9.698,78.907L-56.875,78.907ZM-83.572,42.301L-83.572,52.531C-83.572,53.03 -83.663,53.388 -83.841,53.603C-84.019,53.818 -84.465,53.924 -85.18,53.924C-85.68,53.997 -86.45,54.05 -87.485,54.084C-88.521,54.123 -89.809,54.123 -91.345,54.084C-92.884,54.05 -94.688,53.997 -96.759,53.924C-96.402,54.426 -96.098,54.943 -95.847,55.479C-95.599,56.015 -95.438,56.534 -95.365,57.033C-92.078,57.033 -89.433,56.999 -87.432,56.926C-85.432,56.856 -83.932,56.678 -82.927,56.392C-81.928,56.034 -81.266,55.585 -80.944,55.051C-80.622,54.514 -80.462,53.675 -80.462,52.531L-80.462,42.162C-78.723,42.083 -76.954,42.001 -75.156,41.916C-69.116,41.631 -63.021,41.38 -56.875,41.166L-56.767,38.055C-63.13,38.271 -69.402,38.504 -75.583,38.752C-77.239,38.819 -78.865,38.883 -80.462,38.942L-80.462,38.181C-77.919,37.002 -75.024,35.567 -71.778,33.874C-68.348,32.089 -65.309,30.159 -62.664,28.084L-65.451,26.155L-66.309,26.369L-99.975,26.369L-99.975,29.478L-70.278,29.478C-71.627,30.409 -73.128,31.357 -74.78,32.32C-76.785,33.49 -78.68,34.556 -80.462,35.519L-80.462,35.054L-83.572,35.054L-83.572,39.055C-86.808,39.167 -89.917,39.263 -92.9,39.342C-98.26,39.487 -102.978,39.628 -107.052,39.772L-106.624,43.201C-102.407,43.059 -97.616,42.881 -92.255,42.666C-89.453,42.554 -86.559,42.432 -83.572,42.301ZM-41.941,30.911C-40.807,31.845 -39.709,32.78 -38.645,33.714C-36.004,36.037 -33.859,38.201 -32.213,40.2L-30.175,38.162C-31.823,36.162 -33.965,34 -36.61,31.678C-37.992,30.464 -39.438,29.254 -40.947,28.049C-39.667,24.012 -38.793,20.021 -38.325,16.076C-38.03,13.584 -37.821,11.154 -37.7,8.785L-24.57,8.785C-24.497,15.333 -24.381,21.267 -24.226,26.583C-24.048,32.732 -23.672,37.966 -23.1,42.291C-22.529,46.615 -21.565,49.922 -20.205,52.209C-18.848,54.496 -16.955,55.641 -14.522,55.641C-13.021,55.641 -11.914,55.141 -11.199,54.139C-10.485,53.139 -9.966,51.423 -9.644,48.992C-9.322,46.564 -9.09,43.167 -8.948,38.806C-9.234,38.664 -9.68,38.485 -10.288,38.271C-10.895,38.055 -11.377,37.806 -11.735,37.521C-11.806,41.809 -12.001,45.418 -12.325,48.35C-12.647,51.281 -13.307,52.744 -14.308,52.744C-15.953,52.744 -17.255,51.62 -18.221,49.367C-19.186,47.116 -19.902,43.9 -20.366,39.719C-20.831,35.537 -21.136,30.569 -21.277,24.816C-21.421,19.061 -21.492,12.682 -21.492,5.676L-37.591,5.676C-37.58,5.1 -37.575,4.527 -37.575,3.959L-37.575,-9.337L-40.684,-9.337L-40.684,3.959C-40.684,4.526 -40.689,5.098 -40.701,5.676L-56.767,5.676L-56.767,8.785L-40.817,8.785C-40.931,10.91 -41.119,13.108 -41.38,15.378C-41.781,18.858 -42.526,22.39 -43.615,25.974C-44.149,25.569 -44.691,25.164 -45.241,24.759C-48.35,22.474 -51.443,20.438 -54.516,18.649L-56.337,20.473C-53.336,22.33 -50.299,24.421 -47.225,26.744C-46.315,27.432 -45.423,28.12 -44.55,28.808C-45.933,32.612 -47.878,36.357 -50.386,40.04C-53.141,44.078 -56.804,47.921 -61.377,51.565C-61.091,51.709 -60.805,51.906 -60.519,52.155C-60.235,52.405 -59.929,52.656 -59.608,52.905C-59.287,53.156 -59.018,53.425 -58.804,53.711C-54.158,49.922 -50.425,45.921 -47.598,41.701C-45.217,38.144 -43.332,34.546 -41.941,30.911ZM-99.225,6.855L-99.225,21.223L-64.809,21.223L-64.809,6.855L-99.225,6.855ZM-96.116,18.006L-96.116,10.072L-67.919,10.072L-67.919,18.006L-96.116,18.006ZM-80.463,-1.295L-80.463,-10.621L-83.572,-10.621L-83.572,-1.295L-105.766,-1.295L-105.766,1.814L-58.375,1.814L-58.375,-1.295L-80.463,-1.295Z"/>
                </g>
                <g transform="matrix(0.707107,-0.707107,-0.707107,-0.707107,180.596165,51.137193)">
                    <path d="M-33.138,-32.204L-73.129,7.787L-70.607,10.308L-70.602,10.303L-47.694,33.211C-43.022,43.35 -32.769,50.388 -20.872,50.388C-9.813,50.388 -0.174,44.307 4.882,35.306L28.904,21.437L5.724,8.053C0.953,-1.828 -9.164,-8.645 -20.872,-8.646C-37.173,-8.647 -50.389,4.568 -50.389,20.87C-50.389,22.584 -50.243,24.265 -49.963,25.899L-61.232,14.63L-34.34,-12.262L-36.861,-14.784L-63.753,12.108L-68.08,7.781L-28.551,-31.748L-28.634,-31.831L-28.177,-32.287L-44.566,-48.676L-47.088,-46.154L-33.138,-32.204ZM-32.796,29.706C-37.352,23.904 -36.957,15.48 -31.61,10.133C-26.263,4.786 -17.839,4.391 -12.037,8.947L-32.796,29.706ZM-9.516,11.469C-4.959,17.271 -5.354,25.695 -10.701,31.042C-11.056,31.397 -11.424,31.73 -11.804,32.041C-17.155,36.42 -24.857,36.482 -30.274,32.228L-9.516,11.469ZM-60.172,-17.824C-62.41,-20.062 -66.038,-20.062 -68.276,-17.825C-70.514,-15.587 -70.514,-11.958 -68.276,-9.72C-66.039,-7.482 -62.41,-7.482 -60.172,-9.721C-57.934,-11.958 -57.934,-15.587 -60.172,-17.824ZM-50.569,-27.427C-52.807,-29.665 -56.435,-29.666 -58.674,-27.427C-60.912,-25.189 -60.912,-21.56 -58.674,-19.322C-56.437,-17.085 -52.808,-17.085 -50.57,-19.323C-48.331,-21.562 -48.332,-25.19 -50.569,-27.427ZM-40.967,-37.029C-43.205,-39.267 -46.834,-39.267 -49.072,-37.029C-51.31,-34.791 -51.31,-31.162 -49.072,-28.924C-46.835,-26.687 -43.206,-26.687 -40.968,-28.925C-38.73,-31.163 -38.73,-34.792 -40.967,-37.029ZM-93.797,-8.56L-103.998,-2.67L-93.797,3.219C-91.706,7.064 -87.631,9.674 -82.946,9.675C-76.129,9.674 -70.602,4.147 -70.601,-2.67C-70.602,-9.487 -76.129,-15.014 -82.946,-15.015C-87.63,-15.014 -91.705,-12.405 -93.797,-8.56ZM-58.349,112.907C-35.112,89.671 -35.113,51.997 -58.349,28.762C-81.584,5.526 -119.258,5.525 -142.494,28.762C-165.73,51.998 -165.73,89.672 -142.494,112.907C-119.259,136.143 -81.585,136.144 -58.349,112.907ZM-81.683,89.573C-92.032,99.922 -108.811,99.921 -119.16,89.573C-129.508,79.224 -129.509,62.445 -119.16,52.096C-108.81,41.747 -92.032,41.748 -81.683,52.096C-71.335,62.445 -71.334,79.224 -81.683,89.573Z"/>
                </g>
                <g transform="matrix(-1,0,0,1,194.2383,89.4355)">
                    <path d="M0.001,-11.462C-3.164,-11.462 -5.73,-8.897 -5.73,-5.731C-5.73,-2.566 -3.164,0 0.001,0C3.165,0 5.731,-2.566 5.731,-5.731C5.731,-8.897 3.165,-11.462 0.001,-11.462ZM0.001,-25.041C-3.164,-25.041 -5.73,-22.475 -5.73,-19.31C-5.73,-16.145 -3.164,-13.579 0.001,-13.579C3.165,-13.579 5.731,-16.145 5.731,-19.31C5.731,-22.475 3.165,-25.041 0.001,-25.041ZM0.001,2.118C-3.164,2.118 -5.73,4.684 -5.73,7.848C-5.73,11.014 -3.164,13.58 0.001,13.58C3.165,13.58 5.731,11.014 5.731,7.848C5.731,4.684 3.165,2.118 0.001,2.118ZM-59.399,-36.252L-43.832,-36.252C-50.007,-35.415 -55.968,-32.622 -60.714,-27.876C-72.239,-16.349 -72.239,2.34 -60.713,13.867C-55.403,19.178 -48.573,22.042 -41.624,22.46L-41.624,34.588L-65.941,34.588L-65.941,38.154L-37.992,38.154L-37.992,34.588L-38.058,34.588L-38.058,22.46C-31.109,22.042 -24.279,19.178 -18.97,13.868C-7.442,2.34 -7.442,-16.349 -18.97,-27.876C-23.716,-32.622 -29.677,-35.415 -35.851,-36.252L-20.716,-36.252L-20.716,-39.818L-31.115,-39.818L-31.115,-47.334L-20.716,-47.334L-20.716,-50.9L-36.333,-50.9C-34.425,-51.831 -33.11,-53.789 -33.11,-56.055C-33.11,-59.22 -35.676,-61.786 -38.84,-61.786C-42.005,-61.786 -44.571,-59.22 -44.571,-56.055C-44.571,-53.789 -43.256,-51.831 -41.347,-50.9L-59.399,-50.9L-59.399,-47.334L-47.681,-47.334L-47.681,-39.818L-59.399,-39.818L-59.399,-36.252ZM-41.624,8.075C-48.364,7.265 -53.709,1.919 -54.52,-4.82L-41.624,-4.82L-41.624,8.075ZM-34.681,-39.818L-44.115,-39.818L-44.115,-47.334L-34.681,-47.334L-34.681,-39.818ZM-54.52,-8.386C-53.709,-15.126 -48.364,-20.472 -41.624,-21.282L-41.624,-8.386L-54.52,-8.386ZM-25.162,-4.82C-25.973,1.919 -31.317,7.265 -38.058,8.075L-38.058,-4.82L-25.162,-4.82ZM-38.058,-21.282C-31.317,-20.472 -25.973,-15.126 -25.162,-8.386L-38.058,-8.386L-38.058,-21.282Z"/>
                </g>
                <g transform="matrix(0,-1,-1,0,234.0793,68.0469)">
                    <circle cx="-14.785" cy="0" r="14.785" style="fill:none;stroke:black;stroke-width:1px;"/>
                </g>
                <g transform="matrix(1,0,0,1,194.8682,98.8558)">
                    <path d="M0,2.9L-6.248,4.574L-4.574,-1.674L0,2.9Z" style="fill-rule:nonzero;"/>
                </g>
            </g>
            <g id="レイヤー-13" serif:id="レイヤー 1" transform="matrix(1,0,0,1,213.4478,5.525546)">
                <g transform="matrix(1,0,0,1,28.3202,8.399)">
                    <path d="M0,-3.362C-1.519,-5.031 -3.251,-6.542 -5.199,-7.895L-4.179,-9.066C-2.316,-7.87 -0.53,-6.409 1.182,-4.683L0,-3.362ZM-6.166,2.922C-7.04,2.615 -7.878,2.46 -8.68,2.46C-9.468,2.46 -10.112,2.589 -10.613,2.847C-11.344,3.227 -11.709,3.775 -11.709,4.491C-11.709,5.085 -11.434,5.569 -10.882,5.941C-10.366,6.291 -9.661,6.467 -8.766,6.467C-7.756,6.467 -7.021,6.074 -6.563,5.285C-6.299,4.827 -6.166,4.276 -6.166,3.631L-6.166,2.922ZM-6.166,-4.157L-4.426,-4.157L-4.426,1.891C-2.8,2.607 -1.078,3.588 0.741,4.834L-0.183,6.317C-1.629,5.264 -3.044,4.383 -4.426,3.674C-4.462,6.503 -5.904,7.917 -8.755,7.917C-10.051,7.917 -11.114,7.642 -11.945,7.09C-12.862,6.482 -13.32,5.625 -13.32,4.523C-13.32,3.735 -13.052,3.044 -12.515,2.45C-11.648,1.49 -10.284,1.01 -8.422,1.01C-7.728,1.01 -6.976,1.107 -6.166,1.3L-6.166,-4.157ZM-17.585,-7.874L-13.621,-7.874C-13.299,-8.933 -12.983,-10.069 -12.676,-11.279L-10.957,-11.043C-11.251,-9.975 -11.559,-8.92 -11.881,-7.874L-7.788,-7.874L-7.788,-6.338L-12.386,-6.338C-13.653,-2.657 -15.114,0.423 -16.769,2.901L-18.24,2.041C-16.693,-0.221 -15.322,-3.014 -14.126,-6.338L-17.585,-6.338L-17.585,-7.874Z" style="fill-rule:nonzero;"/>
                </g>
                <g transform="matrix(1,0,0,1,42.1073,-0.334)">
                    <path d="M0,15.039C-0.394,12.776 -1.457,11.644 -3.19,11.644C-4.05,11.644 -4.673,11.938 -5.06,12.525C-5.231,12.783 -5.317,13.059 -5.317,13.352C-5.317,14.004 -4.892,14.48 -4.039,14.781C-3.388,15.018 -2.561,15.136 -1.558,15.136C-1.106,15.136 -0.587,15.103 0,15.039M-7.81,-1.547L3.631,-1.547L4.512,-0.204C0.73,2.316 -2.406,4.473 -4.898,6.263C-3.101,5.575 -1.293,5.231 0.526,5.231C2.238,5.231 3.667,5.55 4.813,6.187C6.46,7.111 7.283,8.576 7.283,10.581C7.283,12.701 6.256,14.298 4.2,15.372C2.639,16.182 0.734,16.586 -1.515,16.586C-3.119,16.586 -4.376,16.36 -5.285,15.909C-6.438,15.336 -7.015,14.459 -7.015,13.277C-7.015,12.504 -6.699,11.831 -6.069,11.258C-5.324,10.577 -4.372,10.237 -3.212,10.237C-1.687,10.237 -0.498,10.76 0.354,11.806C0.941,12.529 1.347,13.496 1.568,14.706C4.161,13.939 5.457,12.558 5.457,10.56C5.457,9.185 4.945,8.16 3.921,7.487C3.047,6.907 1.852,6.617 0.333,6.617C-0.877,6.617 -2.152,6.764 -3.491,7.058C-4.594,7.301 -5.475,7.616 -6.134,8.003C-6.936,8.469 -7.777,9.099 -8.658,9.893L-9.829,8.529C-8.046,7.018 -5.904,5.35 -3.405,3.523C-1.436,2.091 0.265,0.913 1.697,-0.011L-7.81,-0.011L-7.81,-1.547Z" style="fill-rule:nonzero;"/>
                </g>
                <g transform="matrix(1,0,0,1,62.1259,7.9914)">
                    <path d="M0,-2.385C2.593,-2.714 5.195,-2.879 7.81,-2.879C7.981,-2.879 8.311,-2.875 8.798,-2.868L8.916,-1.268C8.407,-1.275 8.003,-1.279 7.702,-1.279C5.195,-1.279 2.703,-1.135 0.226,-0.849L0,-2.385ZM9.636,7.799C8.568,7.956 7.348,8.035 5.973,8.035C3.731,8.035 2.034,7.845 0.881,7.466C-0.408,7.036 -1.053,6.173 -1.053,4.877C-1.053,4.017 -0.802,3.298 -0.301,2.718L1.085,3.577C0.849,3.871 0.73,4.228 0.73,4.651C0.73,5.345 1.06,5.783 1.719,5.962C2.664,6.219 3.871,6.348 5.339,6.348C6.735,6.348 8.104,6.245 9.442,6.037L9.636,7.799ZM-8.798,-7.337L-3.824,-7.337C-3.545,-8.583 -3.313,-9.737 -3.126,-10.796L-1.364,-10.571L-1.396,-10.42C-1.683,-9.031 -1.905,-8.003 -2.063,-7.337L5.307,-7.337L5.307,-5.801L-2.438,-5.801C-3.835,-0.179 -5.41,4.558 -7.165,8.411L-8.841,7.777C-6.979,3.588 -5.432,-0.939 -4.2,-5.801L-8.798,-5.801L-8.798,-7.337Z" style="fill-rule:nonzero;"/>
                </g>
                <g transform="matrix(1,0,0,1,89.6308,-2.665)">
                    <path d="M0,18.745C-1.246,18.824 -2.424,18.863 -3.534,18.863C-6.277,18.863 -8.304,18.652 -9.614,18.229C-11.756,17.542 -12.826,16.285 -12.826,14.459C-12.826,13.535 -12.601,12.808 -12.149,12.278L-10.785,13.041C-11,13.557 -11.107,14.036 -11.107,14.48C-11.107,15.612 -10.313,16.382 -8.723,16.79C-7.569,17.091 -5.962,17.241 -3.899,17.241C-2.746,17.241 -1.5,17.183 -0.161,17.069L0,18.745ZM-13.75,2.546L-7.015,2.546C-7.315,1.686 -7.595,0.834 -7.853,-0.011L-6.145,-0.118C-5.937,0.619 -5.644,1.508 -5.264,2.546L2.224,2.546L2.224,4.039L-4.705,4.039C-4.247,5.235 -3.721,6.424 -3.126,7.605L3.695,7.605L3.695,9.099L-2.331,9.099C-1.579,10.467 -0.759,11.741 0.129,12.923L-1.59,13.503C-2.55,12.113 -3.434,10.645 -4.243,9.099L-14.126,9.099L-14.126,7.605L-4.974,7.605C-5.511,6.438 -6.009,5.249 -6.467,4.039L-13.75,4.039L-13.75,2.546Z" style="fill-rule:nonzero;"/>
                </g>
                <g transform="matrix(1,0,0,1,110.5185,11.8474)">
                    <path d="M0,-9.41C-0.494,-10.699 -1.132,-11.895 -1.912,-12.998L-0.612,-13.503C0.197,-12.45 0.842,-11.286 1.321,-10.012L0,-9.41ZM-2.793,-8.336C-3.266,-9.567 -3.91,-10.764 -4.727,-11.924L-3.362,-12.45C-2.546,-11.24 -1.901,-10.058 -1.429,-8.905L-2.793,-8.336ZM-12.096,-13.943L-10.313,-13.943L-10.313,-1.536C-10.313,1.364 -8.783,2.815 -5.726,2.815C-4.408,2.815 -3.219,2.403 -2.159,1.579C-0.748,0.484 0.404,-1.676 1.3,-4.898L2.868,-3.91C2.131,-1.396 1.261,0.484 0.258,1.73C-1.246,3.599 -3.283,4.533 -5.854,4.533C-8.368,4.533 -10.137,3.745 -11.161,2.17C-11.784,1.21 -12.096,-0.032 -12.096,-1.557L-12.096,-13.943Z" style="fill-rule:nonzero;"/>
                </g>
                <g transform="matrix(1,0,0,1,127.3027,13.223)">
                    <path d="M0,-8.852C0.086,-7.076 0.129,-5.576 0.129,-4.351C0.129,-2.789 0.032,-1.519 -0.161,-0.538C1.149,-0.587 2.142,-0.96 2.814,-1.655C3.53,-2.4 3.889,-3.445 3.889,-4.791C3.889,-7.492 2.593,-8.845 0,-8.852M-7.401,-10.506C-7.867,-8.494 -8.114,-6.367 -8.143,-4.125C-7.734,-5.522 -6.929,-6.775 -5.726,-7.885C-4.565,-8.953 -3.194,-9.662 -1.611,-10.012C-1.633,-10.313 -1.676,-10.878 -1.74,-11.709L-1.794,-12.44L-1.805,-12.676L-0.226,-12.676L-0.215,-12.59C-0.172,-11.917 -0.129,-11.19 -0.086,-10.41L-0.075,-10.173C2.045,-10.159 3.588,-9.511 4.555,-8.229C5.228,-7.333 5.564,-6.199 5.564,-4.824C5.564,-3.04 4.945,-1.605 3.706,-0.516C2.668,0.401 1.317,0.859 -0.344,0.859C-0.372,0.859 -0.451,0.855 -0.58,0.848C-1.175,2.173 -2.303,3.165 -3.964,3.824L-4.995,2.739C-3.648,2.273 -2.711,1.579 -2.181,0.655C-3.162,0.433 -4.146,-0.072 -5.135,-0.86L-4.49,-2.095C-3.731,-1.372 -2.808,-0.896 -1.719,-0.666C-1.54,-1.511 -1.45,-2.761 -1.45,-4.415C-1.45,-5.683 -1.482,-7.094 -1.547,-8.648C-3.173,-8.19 -4.483,-7.376 -5.479,-6.209C-6.338,-5.2 -6.976,-4.068 -7.391,-2.815C-7.577,-2.271 -7.67,-1.723 -7.67,-1.171C-7.67,-0.785 -7.623,-0.373 -7.53,0.064L-9.109,0.429C-9.453,-1.275 -9.625,-2.847 -9.625,-4.287C-9.625,-6.542 -9.382,-8.738 -8.895,-10.872L-7.401,-10.506Z" style="fill-rule:nonzero;"/>
                </g>
                <g transform="matrix(1,0,0,1,151.0165,-2.4508)">
                    <path d="M0,18.896C-3.065,16.497 -7.15,13.779 -12.257,10.743C-13.181,10.191 -13.643,9.654 -13.643,9.131C-13.643,8.666 -13.392,8.25 -12.891,7.885C-12.755,7.785 -12.35,7.552 -11.677,7.187C-9.736,6.141 -7.158,4.544 -3.942,2.396C-2.711,1.565 -1.572,0.767 -0.526,0L0.462,1.343C-0.698,2.188 -2.095,3.141 -3.728,4.201C-6.506,6.005 -8.805,7.402 -10.624,8.39C-11.183,8.691 -11.462,8.913 -11.462,9.056C-11.462,9.192 -11.333,9.346 -11.075,9.518C-10.996,9.576 -10.649,9.776 -10.033,10.12C-7.448,11.552 -4.572,13.357 -1.407,15.534C-0.627,16.078 0.193,16.666 1.053,17.295L0,18.896Z" style="fill-rule:nonzero;"/>
                </g>
                <g transform="matrix(0.21638,0,0,0.214976,-395.78839,-209.212788)">
                    <rect x="781.647" y="898.267" width="1921.769" height="712.642" style="fill:none;"/>
                </g>
            </g>
        </g>
        <g id="レイヤー1">
        </g>
        <g id="レイヤー-14" serif:id="レイヤー 1">
        </g>
    </g>
</svg>
