<svg id="b" xmlns="http://www.w3.org/2000/svg" width="387.397" height="223.833" viewBox="0 0 387.397 223.833" style="color: initial !important;"><defs><style>.d{fill:#3d8dcc;}.e{fill:#ffffff;}.f{fill:#74c66d;}.g{fill:none;}.h{fill:#211715;}.i{fill:#ffda71;}</style></defs><g id="c"><path class="i" d="M261.531,129.344c-2.717-.209-6.008-3.276-6.846-5.383-1.725-4.338-2.418-12.148.679-18.343,2.299-4.599,3.694-8.452,4.171-12.987.46-4.367-.19-20.009-.596-24.278-2.172-22.82,3.671-37.435,12.579-46.048,5.37-5.192,17.471-12.265,31.067-12.265,8.172,0,17.731.809,26.833,8.807,10.97,7.27,17.251,16.397,18.501,33.179.171,2.299.209,7.675.271,15.073,0,6.31-.403,15.272.652,20.185,1.663,7.742,6.739,13.988,9.721,21.324,4.789,11.781,2.506,27.326-8.214,34.169l-88.819-13.433Z"/><path class="e" d="M263.684,83.666c.327,2.331.809,4.581,1.482,6.71,1.382,4.365,3.571,8.218,6.894,11.21,4.938,4.445,10.215,6.94,16.337,7.617-.77,1.973-2.63,3.657-4.661,4.316-1.425.601-3.429,1.291-5.493,1.981,2.186,3.976,5.701,6.906,9.534,8.631,4.102,1.846,8.577,2.405,12.986,2.405,11.516-.017,22.996-3.892,32.669-11.017,0,0,1.252-.987,1.664-1.311-.645-.276-1.261-.551-1.817-.823-3.373-1.648-7.51-3.347-9.459-6.558-.721-1.193-1.176-2.523-1.631-3.837-.574-1.674-1.149-3.348-1.722-5.021,1.24-1.279,2.363-2.59,3.429-3.947-3.021-8.088,1.78-16.188.411-24.914-1.31-8.31-3.05-16.03-11.07-22.17-7.935-6.083-16.576-6.887-28.747-1.839-3.925,3.074-14.196,11.503-22.218,18.611.446,5.327.665,10.631.971,15.533.093,1.499.237,2.976.44,4.422Z"/><path class="g" d="M334.732,26.389c5.204,5.154,7.637,10.92,9.12,17.907.744,3.517.958,7.131.595,10.698-.393,3.841-1.007,12.891-4.039,17.629"/><path class="g" d="M328.246,21.207c-8.773-6.692-17.056-8.527-25.403-8.402-13.226.199-24.023,4.929-31.432,13.063-4.278,4.696-7.477,11.626-8.826,17.854-1.268,5.852-1.584,14.754-.323,22.193"/><path class="h" d="M318.768,99.17c.887,2.583,1.636,5.286,2.831,7.748,1.055,2.173,2.812,3.814,4.809,5.123,3.915,2.565,8.451,4.211,12.76,5.967,1.001.408,2.198-.443,2.46-1.397.315-1.145-.392-2.051-1.397-2.46-3.84-1.565-7.783-3.076-11.327-5.261-1.588-.979-2.929-2.149-3.774-3.835-1.091-2.176-1.717-4.65-2.505-6.948-.831-2.421-4.696-1.381-3.857,1.063h0Z"/><path class="h" d="M284.265,94.144c1.734.994,3.808,1.402,5.789,1.453.997.026,2.015-.066,2.987-.286.493-.112.957-.29,1.422-.486.294-.124.586-.251.877-.382.109-.049.217-.098.326-.147.034-.015.578-.242.182-.08.965-.393,1.757-1.348,1.397-2.46-.301-.931-1.423-1.82-2.46-1.397-.574.234-1.139.487-1.705.739-.038.017-.379.158-.157.07.22-.087-.108.038-.147.052-.177.065-.356.121-.538.17-.197.053-.396.096-.596.132-.087.016-.195.015-.277.045.112-.041.377-.041.105-.019-.421.034-.84.058-1.263.052-.409-.006-.812-.047-1.219-.076-.29-.021.363.06.078.013-.1-.017-.2-.031-.3-.048-.222-.038-.442-.082-.661-.133-.374-.087-.744-.193-1.106-.322-.071-.025-.447-.115-.143-.047.258.057.011.006-.065-.032-.171-.084-.339-.169-.505-.264-.908-.52-2.229-.243-2.736.718-.503.952-.252,2.181.718,2.736h0Z"/><path class="d" d="M297.417,73.49c-.402-1.825.291-5.891,3.693-5.963,4.455.393,4.286,5.364,2.595,7.568-1.385,1.805-5.063,2.301-6.287-1.606Z"/><path class="d" d="M270.884,72.149c-.36-1.829.293-5.91,3.409-5.997,4.079.374,3.902,5.361,2.343,7.579-1.277,1.817-4.647,2.33-5.752-1.583Z"/><path class="g" d="M285.951,77.929c-.401.606-1.35,2.105-1.765,2.906-.224.388-.466.916-.169,1.251.599.676,1.114.609,1.514.693"/><path class="h" d="M284.536,76.515c-.51.579-.984,1.193-1.443,1.813-.377.508-.737,1.031-1.03,1.593-.343.658-.551,1.321-.451,2.068.123.912.675,1.538,1.403,2.045.372.259.827.442,1.266.549.236.057.478.078.717.126.533.105,1.06.08,1.541-.202.415-.243.811-.718.919-1.195.117-.512.091-1.087-.202-1.541-.271-.42-.688-.819-1.195-.919-.377-.075-.749-.107-1.11-.252l.478.202c-.152-.067-.291-.145-.426-.242l.405.313c-.121-.095-.233-.196-.328-.318l.313.405c-.025-.037-.045-.076-.06-.117l.202.478c-.015-.041-.025-.083-.03-.127l.071.532c-.005-.07-.004-.132.003-.202l-.071.532c.02-.122.055-.236.099-.351l-.202.478c.337-.793.888-1.506,1.409-2.185l-.313.405c.278-.36.563-.714.863-1.055.353-.401.586-.867.586-1.414,0-.491-.218-1.076-.586-1.414-.381-.35-.882-.61-1.414-.586-.511.023-1.065.189-1.414.586h0Z"/><path class="h" d="M316.567,104.056c3.277-2.519,6.193-5.369,8.745-8.623.341-.435.586-.837.586-1.414,0-.491-.218-1.076-.586-1.414-.719-.66-2.139-.879-2.828,0-1.152,1.469-2.373,2.884-3.685,4.213-.679.688-1.381,1.354-2.104,1.995-.376.334-.758.661-1.145.982-.198.164-.398.327-.599.488-.102.081-.204.163-.306.243-.081.064-.463.358-.095.076-.432.332-.768.647-.919,1.195-.132.479-.072,1.116.202,1.541.526.816,1.849,1.399,2.736.718h0Z"/><path class="h" d="M307.557,103.961c-8.844,3.556-19.005,5.185-27.812.601-4.022-2.094-7.737-5.12-10.103-9.027-2.38-3.931-3.578-8.518-4.11-13.053-.758-6.453-.763-13-1.3-19.476-.211-2.547-4.213-2.57-4,0,.515,6.213.573,12.474,1.212,18.674.533,5.17,1.682,10.336,4.199,14.928,4.886,8.914,14.967,14.358,24.958,14.758,6.217.249,12.284-1.242,18.019-3.548,1.001-.403,1.706-1.334,1.397-2.46-.261-.951-1.452-1.802-2.46-1.397h0Z"/><path class="g" d="M332.013,68.556c1.271-.822,2.825-.954,4.09-.7,2.755.552,3.699,2.176,4.066,3.097,1.095,2.754.266,7.349-1.228,10.034-1.053,1.899-2.645,4.524-5.854,6.266-1.31.707-5.182,1.714-7.743.287"/><path class="h" d="M350.19,67.099c-.107-12.849.312-26.407-7.01-37.632-1.809-2.773-3.995-5.283-6.444-7.508-1.902-1.728-4.739,1.093-2.828,2.828,4.066,3.694,7.261,8.17,9.174,13.341,2.034,5.497,2.832,11.348,2.97,17.184.093,3.928.105,7.858.138,11.787.021,2.573,4.022,2.579,4,0h0Z"/><path class="h" d="M331.237,17.792c-5.375-4.797-11.817-7.98-18.951-9.086-6.63-1.028-13.525-.961-20.066.592-11.084,2.631-21.605,8.926-27.833,18.615-6.568,10.219-8.299,22.874-7.83,34.796.202,5.128.729,10.238.924,15.37.178,4.714.496,9.549.083,14.258-.306,3.494-1.435,6.922-2.884,10.098-.8,1.752-1.719,3.44-2.312,5.28-.547,1.697-.855,3.464-1.029,5.236-.312,3.176-.053,6.488.774,9.572.807,3.012,2.451,5.322,5.008,7.127,1.332.94,2.796,1.509,4.412,1.693,1.075.123,2-1.007,2-2,0-1.183-.922-1.877-2-2-2.227-.255-4.527-2.692-5.211-4.715-.921-2.727-1.217-5.634-1.07-8.5.173-3.369,1.278-6.226,2.686-9.247,1.551-3.329,2.814-6.776,3.364-10.42.664-4.401.412-8.938.282-13.369-.124-4.246-.265-8.507-.642-12.739-1.041-11.706-.566-24.182,4.863-34.864,1.951-3.839,4.493-7.371,7.677-10.283,3.966-3.627,8.917-6.361,13.925-8.248,6.845-2.579,13.946-3.315,21.207-2.696,7.411.632,14.227,3.388,19.797,8.359,1.915,1.709,4.754-1.11,2.828-2.828h0Z"/><path class="h" d="M291.419,44.828c5.197-1.347,10.696-1.566,15.68.705,4.824,2.198,8.979,5.951,11.479,10.635,2.272,4.256,3.434,9.443,3.889,14.225.568,5.96-1.611,11.722-1.588,17.657.007,1.646.186,3.321.593,4.919.444,1.744,1.307,3.26,1.974,4.912,1.249,3.092,1.506,6.609.055,9.679-1.094,2.315,2.354,4.347,3.454,2.019,1.491-3.156,1.863-6.502,1.186-9.926-.655-3.314-2.733-6.093-3.146-9.473-.775-6.347,1.875-12.576,1.533-18.936-.154-2.873-.75-5.802-1.406-8.601-.622-2.657-1.485-5.258-2.689-7.711-2.599-5.293-7.104-9.677-12.332-12.373-6.217-3.206-13.07-3.317-19.745-1.587-2.49.645-1.434,4.504,1.063,3.857h0Z"/><path class="h" d="M261.99,66.64c7.575-6.804,15.39-13.381,23.375-19.7.848-.671.702-2.127,0-2.828-.837-.837-1.979-.673-2.828,0-7.985,6.32-15.799,12.896-23.375,19.7-1.919,1.724.917,4.545,2.828,2.828h0Z"/><path class="h" d="M346.19,67.099c-.006,5.481-.288,10.99.15,16.461.462,5.765,2.615,10.871,5.339,15.917,2.637,4.884,5.468,9.65,6.621,15.143.965,4.6.885,9.472-.347,14.013-1.359,5.007-4.216,9.56-8.613,12.417-2.151,1.398-.148,4.862,2.019,3.454,8.754-5.689,12.362-16.463,11.448-26.549-.511-5.638-2.425-10.719-5.06-15.694-2.817-5.319-6.259-10.578-7.184-16.642s-.38-12.401-.373-18.52c.003-2.574-3.997-2.578-4,0h0Z"/><path class="h" d="M272.175,119.687c3.107-1.169,6.293-2.116,9.422-3.224,1.497-.531,3.121-1.033,4.503-1.82,1.656-.943,3.09-2.422,3.905-4.149.461-.976.272-2.158-.718-2.736-.87-.509-2.273-.263-2.736.718-1.289,2.729-4.022,3.441-6.697,4.369-2.909,1.01-5.86,1.901-8.743,2.986-1.01.38-1.702,1.351-1.397,2.46.266.969,1.444,1.779,2.46,1.397h0Z"/><path class="f" d="M385.364,194.957c-.311-7.185-1.348-11.756-2.835-17.757-2.632-10.618-5.255-16.54-8.094-24.974-1.752-5.086-3.668-10.01-5.689-13.958-3.684-7.197-6.827-10.489-9.31-12.569-5.821-4.879-14.077-8.88-23.425-12.21-.49.386-.777.612-.777.612l-1.801,1.419c-9.673,7.125-21.153,11-32.669,11.017-4.409,0-8.884-.56-12.986-2.406-4.078-1.835-7.795-5.033-9.922-9.409-1.039.264-2.725.697-3.438.907-7.571,2.227-17.877,6.096-23.172,11.401-1.031,1.033-3.129,3.184-5.371,6.349-1.996,1.671-14.738,26.565-18.282,38.361-1.338,4.453-4.162,14.025-4.826,21.189-.256,2.767.34,6.055,1.5,8.611,2.562,5.644,12.222,9.417,21.555,5.167,0,0,7.165-3.277,13.789-6.307.98,4.822,1.854,9.665,2.621,14.524,0,0,.086.516.234,1.406h115.916c5.613-4.712,7.362-12.645,6.982-21.374Z"/><path class="h" d="M372.507,152.757c2.807,8.31,5.973,16.445,8.094,24.974,2.079,8.36,3.882,17.396,2.281,26.003-.801,4.304-2.541,8.289-5.914,11.182-1.957,1.679.883,4.497,2.828,2.828,6.962-5.972,8.016-15.818,7.483-24.418-.588-9.47-3.07-18.855-6.062-27.826-1.543-4.628-3.292-9.185-4.853-13.807-.819-2.426-4.684-1.385-3.857,1.063h0Z"/><path class="h" d="M244.813,204.98c-3.447,1.526-7.4,2.002-11.079,1.11-2.713-.658-5.573-2.053-7.14-4.465-1.992-3.067-2.101-7.07-1.612-10.568.523-3.744,1.398-7.443,2.356-11.097,1.426-5.442,3.08-10.769,5.223-15.973,2.348-5.702,4.993-11.289,7.762-16.797,1.335-2.655,2.703-5.295,4.151-7.891.854-1.531,1.698-3.125,2.772-4.518.66-.856.13-2.24-.718-2.736-1.033-.604-2.074-.14-2.736.718-1.006,1.304-1.802,2.789-2.606,4.222-1.335,2.378-2.598,4.796-3.831,7.227-3.039,5.99-5.898,12.079-8.473,18.284-2.341,5.64-4.13,11.424-5.642,17.338-1.011,3.952-1.88,7.949-2.357,12.004-.462,3.93.088,8.557,2.335,11.925,5.08,7.611,15.971,8.055,23.615,4.672.988-.437,1.219-1.879.718-2.736-.596-1.018-1.745-1.156-2.736-.718h0Z"/><path class="h" d="M276.078,115.66c9.024,18.14,35.205,14.159,50.03,6.704,3.776-1.899,7.228-4.24,10.54-6.85.849-.669.7-2.128,0-2.828-.838-.838-1.977-.671-2.828,0-5.793,4.565-12.565,8.108-19.817,10.066-4.049,1.093-8.202,1.701-12.396,1.776-4.383.078-8.953-.354-12.985-2.201-3.954-1.811-7.149-4.785-9.09-8.686-1.147-2.305-4.598-.281-3.454,2.019h0Z"/><path class="h" d="M330.95,113.877c8.018,2.605,16.029,5.7,23.117,10.335,2.39,1.563,4.658,3.311,6.594,5.419,2.395,2.607,4.26,5.665,5.91,8.783,2.424,4.582,4.244,9.452,5.936,14.342.836,2.418,4.702,1.379,3.857-1.063-2.897-8.374-6.21-16.984-11.967-23.856-4.548-5.428-11.056-9.104-17.395-12.039-4.863-2.252-9.894-4.123-14.988-5.779-2.454-.797-3.505,3.064-1.063,3.857h0Z"/><path class="h" d="M264.579,215.799c-1.244-7.271-2.673-14.508-4.27-21.71-.557-2.512-4.414-1.449-3.857,1.063,1.597,7.202,3.026,14.439,4.27,21.71.182,1.065,1.493,1.663,2.46,1.397,1.127-.31,1.58-1.392,1.397-2.46h0Z"/><path class="h" d="M278.197,112.572c-5.266,1.323-10.418,2.955-15.42,5.081-5.502,2.339-10.599,5.289-14.647,9.744-2.557,2.815-4.801,5.917-6.675,9.225-1.271,2.243,2.184,4.261,3.454,2.019,1.898-3.35,4.161-6.45,6.816-9.24,2.358-2.478,5.09-4.353,8.108-5.952,6.105-3.235,12.748-5.343,19.427-7.021,2.495-.627,1.438-4.485-1.063-3.857h0Z"/><path class="e" d="M223.993,185.418c2.079.14,4.854-.217,6.915-.525,2.747-.41,6.921-1.076,9.632-1.68l4.297-1.541c5.125-2.925,8.683-7.592,8.359-14.491-.068-1.455-.41-4.237-1.319-6.508-1.316-3.363-3.927-6.373-6.916-8.532-3.001-2.168-6.302-3.887-9.453-5.83-1.548-.955-3.156-1.932-4.959-2.171-1.803-.239-3.865.468-4.64,2.113-1.135,2.411.926,5.047,2.85,6.89,1.03.987,2.066,1.966,3.11,2.937-4.212,2.404-9.895,3.786-14.79,3.208l.039-.104c-4.6-.594-8.953-1.273-13.15-1.739-1.411-.157-2.941.103-4.069.966-1.403,1.072-1.761,3.282-.768,4.743l.446.828c-.252.072-.488.173-.691.308-.661.441-.942,1.855-.393,2.572l2.08,3.827c-.285.11-.569.293-.849.571-.461.457-.795,1.528-.245,2.529.416.756,1.651,1.849,2.565,2.239l6.855,2.81c-.024.059-.038.122-.049.185-.128.792.325,1.652,1.007,2.074,1.904,1.177,3.361,1.777,6.349,2.677,3.228.973,5.594,1.371,9.292,1.674"/><path class="h" d="M217.078,161.29c5.157.576,10.548-.733,15.119-3.109.958-.498,1.243-1.837.718-2.736-.568-.972-1.775-1.217-2.736-.718-3.952,2.054-8.575,3.068-13.101,2.563-1.075-.12-2,1.005-2,2,0,1.181.922,1.88,2,2h0Z"/><path class="h" d="M233.54,154.906c-1.223-1.137-2.462-2.263-3.642-3.444-.899-.9-2.114-2.126-2.301-3.461-.155-1.107.768-1.736,1.765-1.879,1.305-.186,2.579.434,3.687,1.051,3.038,1.69,6.075,3.503,8.993,5.393,2.575,1.668,4.942,3.631,6.622,6.234,2.764,4.284,3.602,10.641,1.158,15.259-1.126,2.127-2.834,3.866-4.84,5.181-.177.116-.401.227-.57.361-.663.527-.045.102-.169.166-.213.111-.473.17-.699.251l-2.489.892c-2.255.808-4.683,1.1-7.04,1.486-3.294.54-6.671,1.199-10.022,1.022-2.572-.136-2.565,3.865,0,4,3.503.185,7.052-.514,10.498-1.07,2.547-.411,5.191-.708,7.627-1.582,2.045-.733,3.931-1.347,5.707-2.644,2.434-1.778,4.542-4.021,5.812-6.783,2.798-6.087,1.805-14.017-2.103-19.408-2.354-3.248-5.451-5.6-8.845-7.68-1.711-1.049-3.461-2.033-5.182-3.065-1.677-1.006-3.322-2.113-5.207-2.699-3.72-1.155-8.484.614-8.703,4.988-.217,4.342,4.292,7.636,7.115,10.261,1.883,1.751,4.719-1.071,2.828-2.828h0Z"/><path class="h" d="M217.117,157.186c-2.347-.305-4.689-.641-7.034-.962-2.27-.31-4.676-.845-6.973-.82-2.17.024-4.464.89-5.665,2.784-1.134,1.789-1.165,4.177-.043,5.976,1.36,2.179,4.822.174,3.454-2.019-.426-.684-.429-1.639.282-2.171,1.248-.934,3.039-.511,4.451-.339,3.849.468,7.683,1.051,11.528,1.55,1.073.139,2-1.019,2-2,0-1.196-.924-1.86-2-2h0Z"/><path class="h" d="M217.083,163.004c-4.409-.244-8.81-.601-13.21-.96-1.895-.155-4.028-.567-5.786.397-1.845,1.011-2.434,3.677-1.324,5.432,1.373,2.17,4.835.165,3.454-2.019-.339-.536.069.059-.033.037.071-.246.083-.296.035-.15-.043.048-.081.099-.114.154.476-.089,1.05-.069,1.581-.029,1.604.122,3.206.262,4.809.391,3.526.284,7.054.552,10.586.747,1.08.06,2-.962,2-2,0-1.133-.917-1.94-2-2h0Z"/><path class="h" d="M220.397,169.453c-5.61.411-11.341-.033-16.912-.74-1.185-.15-2.323-.368-3.482.055-1.307.477-2.332,1.515-2.683,2.873-.681,2.632,1.483,5.054,3.713,6.114.975.463,2.159.27,2.736-.718.51-.872.262-2.271-.718-2.736-.416-.198-2.387-1.443-1.718-1.797.189-.1.631.013.84.035.628.067,1.254.167,1.881.244,1.026.125,2.053.234,3.082.328,4.399.399,8.85.665,13.262.342,1.077-.079,2-.863,2-2,0-1.021-.917-2.079-2-2h0Z"/><path class="h" d="M221.665,175.234c-2.635.131-5.274.12-7.911.211-1.265.044-2.708-.155-3.937.188-1.288.359-2.46,1.34-2.847,2.647-.41,1.385.103,2.92,1.091,3.931.709.725,1.769,1.225,2.675,1.662,2.114,1.02,4.391,1.727,6.658,2.317,2.653.69,5.372,1.032,8.1,1.26,1.078.09,2-.984,2-2,0-1.157-.919-1.91-2-2-2.429-.203-4.8-.527-7.165-1.15-2.159-.569-4.352-1.224-6.138-2.164-.396-.209-1.025-.442-1.329-.764.108.114-.088-.182-.09-.181.045-.046.064.21.048.198-.002.042-.013.082-.032.119-.105.093-.054.073.15-.061-.189-.016.186.015.224.018.664.045,1.327.032,1.99.004,2.836-.119,5.675-.094,8.511-.234,1.079-.054,2-.881,2-2,0-1.042-.916-2.054-2-2h0Z"/><path class="e" d="M310.54,203.576c-1.019-.924-5.756-5.228-6.754-6.278-3.229-3.397-4.894-10.454-.718-12.732.819-.403,1.86-.571,2.314-1.362.256-.446.254-.987.329-1.495.187-1.251.937-2.384,1.966-3.115s1.589-1.946,1.54-3.206c-.026-.672-.024-1.256-.011-1.382.213-2.047,1.123-4.034,2.609-5.468.046-.044.102-.09.165-.137.937-.694,1.553-1.735,1.618-2.899.059-1.066.148-2.114.125-2.494-.065-1.097.378-2.265.839-3.079.746-1.319,2.17-1.905,3.558-1.848,1.232.05,2.335.501,2.911,1.649,1.426,2.843,5.068,13.387,8.856,19.256,1.91-.773,3.881-1.593,4.674-1.996,3.202-1.626,5.501.324,6.303,1.625.6.974.798,2.224.846,3.367.132,3.175.075,5.84-.153,9.179-.029.425-.096.866.057,1.264.133.344.382.639.67.87.72.578,1.412,1.131,2.088,1.658,1.473,1.149,1.874,3.207.945,4.829-2.505,4.371-5.212,8.668-8.462,12.394-1.914,2.195-5.162,2.707-7.635,1.171-3.054-1.896-6.245-3.47-9.615-5.146-2.808-1.307-6.244-2.11-8.873-4.45,0,0-.069-.062-.193-.175Z"/><path class="h" d="M318.597,209.928c2.386,1.186,4.777,2.366,7.102,3.668,2.063,1.155,3.903,2.509,6.348,2.626,5.131.244,8.129-4.71,10.663-8.425,1.46-2.14,2.835-4.351,4.106-6.609,1.137-2.019,1.393-4.34.09-6.372-.638-.996-1.587-1.64-2.497-2.366-.345-.275-.82-.647-.884-.86-.169-.565.113-1.68.144-2.271.126-2.439.173-4.896.041-7.336-.122-2.262-.701-4.495-2.535-5.967-2.059-1.652-4.708-1.819-7.146-.955-2.409.854-1.372,4.72,1.063,3.857,1.293-.459,2.653-.659,3.73.335.965.891.904,2.866.937,4.279.048,2.08.001,4.159-.116,6.236-.059,1.04-.277,2.17.041,3.188s1.096,1.683,1.896,2.322c1.087.868,2.785,1.788,2.052,3.42-.867,1.93-2.215,3.787-3.366,5.559-1.144,1.761-2.345,3.492-3.667,5.125-1.054,1.302-2.078,2.655-3.865,2.833-2.013.2-3.751-1.374-5.41-2.291-2.202-1.216-4.458-2.33-6.71-3.45-2.298-1.143-4.327,2.307-2.019,3.454h0Z"/><path class="h" d="M333.433,180.297c-1.956-1.956-3.296-4.719-4.526-7.254-1.433-2.954-2.683-5.992-3.915-9.034-.909-2.246-1.67-5.553-3.769-6.996-1.661-1.142-4.009-1.198-5.813-.389-2.002.898-3.216,2.901-3.575,5.023-.164.971-.12,1.979-.181,2.961-.07,1.126-.249,1.61-1.087,2.379-1.529,1.403-2.623,3.325-3.096,5.346-.366,1.561.227,3.664-1.102,4.766-.81.671-1.513,1.391-1.989,2.345-.245.492-.447,1.011-.56,1.548-.05.238-.097,1.078-.162,1.158-.204.247-1.025.43-1.282.548-.321.147-.61.315-.897.52-.746.53-1.379,1.196-1.848,1.985-.831,1.395-1.127,3.114-1.032,4.72.194,3.296,1.628,6.596,3.939,8.958,1.943,1.986,4.065,3.815,6.12,5.683,1.012.92,2.064,1.782,3.258,2.463,2.12,1.208,4.472,1.896,6.684,2.902.983.447,2.152.281,2.736-.718.502-.859.27-2.287-.718-2.736-2.933-1.334-6.234-2.137-8.684-4.332-1.683-1.508-3.346-3.041-4.996-4.585-1.759-1.646-3.233-3.261-3.947-5.637-.356-1.186-.574-2.489-.29-3.71.318-1.365,1.141-1.79,2.35-2.317.824-.359,1.605-.874,2.059-1.68.5-.89.358-1.91.757-2.814.354-.803,1.051-1.165,1.652-1.754.72-.704,1.255-1.642,1.511-2.616.447-1.701-.009-3.306.731-4.978.76-1.717,2.449-2.59,3.249-4.253.888-1.846.342-3.81.813-5.702.309-1.245,1.593-2.727,3.041-1.859.331.198.458.534.62.87.094.195.18.395.267.594.044.101.275.643.179.414.467,1.11.911,2.23,1.364,3.346,1.33,3.281,2.678,6.562,4.231,9.745,1.359,2.785,2.867,5.705,5.081,7.919,1.823,1.823,4.652-1.005,2.828-2.828h0Z"/><path class="e" d="M57.88,63.113c-1.338-.899-2.99-1.068-4.342-.821-2.943.537-3.978,2.248-4.386,3.221-1.217,2.912-.42,7.819,1.121,10.706,1.086,2.041,2.732,4.865,6.116,6.78,1,.563,3.429,1.318,5.738,1.133.196.444.353.804.353.804.763,1.477,2.54,4.049,2.54,4.049,1.557,2.163,3.206,4.222,5.136,6.216-.561,1.637-1.123,3.275-1.685,4.914-.484,1.398-.969,2.815-1.736,4.085-2.075,3.418-6.48,5.228-10.072,6.982-.613.3-1.294.604-2.008.908.331.26,1.845,1.453,1.845,1.453,10.3,7.586,22.523,11.713,34.786,11.731,4.695,0,9.459-.596,13.827-2.561,4.05-1.823,7.766-4.907,10.097-9.091-2.179-.729-4.289-1.457-5.794-2.091-2.056-.667-3.948-2.321-4.835-4.296,0,0-.026-.059-.062-.142,6.127-.76,11.498-3.29,16.574-7.702,6.432-5.591,9.048-14.184,9.802-23.621.434-5.442.777-11.354,1.379-17.268,0,0,4.645-29.481-27.188-29.481-49.5,0-47.205,34.093-47.205,34.093Z"/><path class="g" d="M62.77,12.773c9.465-6.962,18.317-8.761,27.201-8.473,14.077.457,25.483,5.694,33.22,14.491,4.467,5.079,7.744,12.516,9.065,19.171,1.241,6.254,1.412,15.737-.068,23.633"/><path class="g" d="M55.768,18.17c-5.637,5.39-8.334,11.484-10.042,18.895-.857,3.731-1.152,7.574-.832,11.378.347,4.096.833,13.743,3.973,18.844"/><path class="g" d="M55.768,18.17c-5.637,5.39-8.334,11.484-10.042,18.895-.857,3.731-1.152,7.574-.832,11.378.347,4.096.833,13.743,3.973,18.844"/><path class="g" d="M62.77,12.773c9.465-6.962,18.317-8.761,27.201-8.473,14.077.457,25.483,5.694,33.22,14.491,4.467,5.079,7.744,12.516,9.065,19.171,1.241,6.254,1.412,15.737-.068,23.633"/><path class="i" d="M61.527,10.383c-5.43,4.135-9.871,9.442-13.619,15.242l-1.659,8.001c-3.131,8.62-2.685,18.569,1.156,26.88l2.076,4.353c.566-.953,1.699-2.137,4.057-2.567,1.352-.247,3.004-.078,4.342.821l8.706,1.014c1.038-4.789,7.435-6.471,11.667-8.103,1.367-.676,2.781-1.411,4.208-2.207h6.807c11.256,1.689,22.342-7.26,26.826-17.007l3.522-3.183c5.045,5.978,8.438,13.429,9.671,21.258.151.959.27,1.922.365,2.888h4.022c1.963-10.918,2.156-21.945-1.4-30.566-4.187-10.151-12.913-17.583-24.642-19.851l-7.354-2.02c-8.77-4.491-19.689-4.224-28.71-.655-.97.384-1.925.806-2.863,1.263-2.571,1.253-4.956,2.748-7.176,4.439Z"/><path class="h" d="M68.132,94.949c-.825,2.403-1.488,4.974-2.598,7.264-.918,1.893-2.377,3.204-4.148,4.296-3.783,2.332-7.993,3.945-12.092,5.615-1,.407-1.707,1.331-1.397,2.46.26.947,1.454,1.807,2.46,1.397,4.578-1.866,9.396-3.616,13.556-6.341,2.052-1.344,3.88-3.025,4.992-5.243,1.327-2.646,2.125-5.592,3.084-8.385.837-2.44-3.025-3.488-3.857-1.063h0Z"/><path class="h" d="M122.824,114.116c-3.069-1.155-6.212-2.105-9.309-3.18-2.83-.982-5.828-1.79-7.208-4.711-.461-.977-1.862-1.229-2.736-.718-1,.585-1.181,1.756-.718,2.736.861,1.822,2.366,3.374,4.112,4.371,1.46.834,3.181,1.364,4.763,1.925,3.331,1.18,6.724,2.188,10.032,3.433,1.011.381,2.193-.423,2.46-1.397.308-1.122-.382-2.078-1.397-2.46h0Z"/><path class="h" d="M106.186,87.657c-.157.087-.317.165-.479.243-.272.133.031-.06.089-.037-.04-.016-.227.086-.272.102-.407.145-.824.26-1.246.353-.207.046-.415.086-.624.121-.048.008-.401.063-.133.024s-.088.009-.137.014c-.458.048-.919.074-1.381.075-.425.001-.847-.025-1.271-.062-.344-.03.068-.017.074.014-.002-.013-.271-.044-.298-.049-.192-.035-.383-.076-.573-.124-.181-.046-.36-.098-.537-.159-.045-.016-.476-.182-.243-.087.206.084-.14-.065-.175-.081-.489-.224-.971-.461-1.465-.673-.959-.411-2.189-.318-2.736.718-.454.859-.309,2.297.718,2.736,1.095.469,2.149,1.077,3.306,1.384,1.032.274,2.133.385,3.2.382,2.116-.005,4.332-.414,6.201-1.442.918-.505,1.292-1.845.718-2.736-.599-.93-1.755-1.258-2.736-.718h0Z"/><path class="h" d="M94.619,69.009c.462-1.936-.201-6.277-3.82-6.417-4.751.335-4.663,5.631-2.903,8.009,1.441,1.948,5.347,2.544,6.724-1.593Z"/><path class="h" d="M122.892,68.073c.417-1.94-.202-6.297-3.518-6.448-4.35.323-4.254,5.634-2.635,8.026,1.325,1.958,4.904,2.567,6.153-1.578Z"/><path class="h" d="M105.018,74.957c.345.543.678,1.093,1.004,1.648.35.596.717,1.199.997,1.833l-.202-.478c.06.147.106.293.129.45l-.071-.532c.006.075.006.141-.001.216l.071-.532c-.006.046-.018.091-.034.134l.202-.478c-.017.044-.039.085-.066.124l.313-.405c-.112.139-.244.258-.385.367l.405-.313c-.12.086-.244.158-.379.218l.478-.202c-.166.065-.335.104-.512.129l.532-.071c-.309.04-.62.069-.926.124-.467.083-.964.525-1.195.919-.251.429-.357,1.061-.202,1.541.157.484.457.951.919,1.195.5.264.985.3,1.541.202.047-.008.094-.015.141-.022l-.532.071c.413-.051.841-.069,1.237-.208.602-.211,1.144-.531,1.591-.992.698-.72.9-1.585.731-2.55-.084-.481-.319-.924-.542-1.354-.543-1.046-1.157-2.06-1.789-3.054-.276-.435-.692-.78-1.195-.919-.479-.132-1.116-.072-1.541.202-.883.569-1.318,1.792-.718,2.736h0Z"/><path class="h" d="M76.18,97.958c-4.824-3.85-9.106-8.572-11.973-14.032-.502-.956-1.834-1.245-2.736-.718-.969.567-1.221,1.777-.718,2.736,1.253,2.387,2.888,4.599,4.549,6.714,2.367,3.013,5.054,5.737,8.049,8.128.844.673,2.005.824,2.828,0,.698-.698.849-2.151,0-2.828h0Z"/><path class="h" d="M81.647,105.03c5.44,2.3,11.055,3.981,16.986,4.264,5.506.263,10.975-.729,15.947-3.132,4.848-2.343,9.311-5.927,12.328-10.409,3.033-4.505,4.637-9.883,5.434-15.21,1.09-7.285,1.194-14.715,1.931-22.042.108-1.076-.997-2-2-2-1.172,0-1.891.921-2,2-.619,6.155-.883,12.34-1.488,18.494-.479,4.877-1.55,9.86-3.838,14.229-4.537,8.665-14.236,13.939-23.875,14.108-6.031.105-11.878-1.418-17.406-3.756-.994-.42-2.142-.299-2.736.718-.49.838-.283,2.313.718,2.736h0Z"/><path class="h" d="M58.889,61.386c-2.956-1.842-6.979-1.478-9.651.719-2.111,1.736-2.731,4.581-2.675,7.197.128,5.974,3.481,12.69,8.958,15.499,3.04,1.559,7.019,1.911,10.115.374,2.306-1.145.282-4.596-2.019-3.454-2.384,1.183-5.576.13-7.409-1.207-2.058-1.501-3.715-3.874-4.64-6.236-.56-1.428-.907-2.976-.988-4.507-.037-.7-.05-1.433.052-2.13.042-.285.113-.574.191-.851.048-.171.102-.339.163-.505-.075.159-.074.156.003-.009.259-.548.302-.615.588-.899.335-.333.641-.57,1.163-.795,1.362-.588,2.875-.524,4.13.258,2.191,1.365,4.201-2.094,2.019-3.454h0Z"/><path class="h" d="M107.099,9.284c7.108,1.411,13.559,4.866,18.303,10.398,5.155,6.011,7.339,13.698,7.626,21.5.198,5.382-.344,10.763-1.283,16.058-.189,1.062.287,2.155,1.397,2.46.967.266,2.271-.328,2.46-1.397,1.701-9.586,2.495-19.952-.567-29.361-2.465-7.573-7.483-14.161-14.18-18.479-3.848-2.481-8.21-4.146-12.693-5.037-2.514-.499-3.59,3.355-1.063,3.857h0Z"/><path class="h" d="M117.541,34.268c3.436,3.918,6.129,8.509,7.863,13.426,1.941,5.507,2.425,11.155,2.689,16.948.117,2.563,4.117,2.578,4,0-.286-6.272-.816-12.461-2.973-18.406-1.976-5.447-4.93-10.44-8.75-14.796-1.7-1.939-4.52.899-2.828,2.828h0Z"/><path class="h" d="M114.367,35.799c-4.201,8.978-14.014,17.562-24.568,16.088-1.068-.149-2.148.26-2.46,1.397-.257.936.32,2.31,1.397,2.46,12.358,1.725,24.015-7.093,29.085-17.927.458-.978.274-2.156-.718-2.736-.867-.507-2.276-.265-2.736.718h0Z"/><path class="h" d="M98.926,35.462c-2.288,5.748-7.315,10.118-12.329,13.486-2.601,1.747-5.328,3.301-8.116,4.726-2.425,1.24-5.101,1.914-7.551,3.12-2.865,1.411-5.488,3.571-6.273,6.8-.608,2.501,3.248,3.568,3.857,1.063.593-2.439,2.895-3.709,5.023-4.688,2.559-1.177,5.241-1.937,7.747-3.247,5.634-2.943,11.172-6.471,15.573-11.108,2.529-2.664,4.566-5.673,5.926-9.09.4-1.004-.437-2.196-1.397-2.46-1.138-.313-2.059.389-2.46,1.397h0Z"/><path class="h" d="M49.132,59.497c-3.608-7.94-3.869-17.15-.954-25.339.865-2.43-2.999-3.475-3.857-1.063-3.29,9.245-2.687,19.52,1.358,28.421.447.983,1.872,1.223,2.736.718,1.011-.591,1.166-1.749.718-2.736h0Z"/><path class="h" d="M49.635,26.635c4.012-6.177,8.898-11.931,15.053-16.065,6.482-4.354,14.12-6.787,21.955-6.571,4.369.12,8.71,1.098,12.624,3.065,2.294,1.153,4.322-2.296,2.019-3.454-7.754-3.898-16.749-4.498-25.13-2.476-8.15,1.966-15.457,6.548-21.305,12.488-3.279,3.331-6.127,7.079-8.67,10.994-1.406,2.165,2.055,4.172,3.454,2.019h0Z"/><path class="e" d="M129.264,116.991c5.657,2.279,11.236,5.203,14.747,8.721,1.536,1.539,5.293,5.403,8.587,11.288,1.85,4.01,3.791,9.608,4.811,12.978,2.4,7.93,9.74,48.814,10.33,65.9H44.417c-4.74,2.25-9.594,4.106-13.726,5.135-8.136,2.025-16.258-.106-19.48-1.939-6.679-3.909-9.548-11.562-9.154-21.576.324-8.249,2.306-17.185,4.209-23.74,3.018-10.07,7.508-25.981,12.633-35.991,3.923-7.663,7.27-11.168,9.913-13.384,6.198-5.195,14.989-9.455,24.941-13.002.524.412.829.653.829.653l1.917,1.511c10.3,7.586,22.523,11.713,34.786,11.731,4.695,0,9.459-.596,13.827-2.561,4.367-1.965,8.345-5.397,10.618-10.092,1.104.28,2.858.731,3.608.952,3.042.895,6.498,2.038,9.925,3.419Z"/><path class="h" d="M114.217,114.299c8.693,2.183,17.68,5,25.123,10.137,3.307,2.282,6.079,5.458,8.419,8.697,1.738,2.406,3.194,4.888,4.299,7.643.996,2.481,1.898,5.001,2.73,7.542,1.778,5.43,2.801,11.09,3.87,16.693,1.608,8.425,3.035,16.887,4.293,25.371,1.251,8.437,2.481,16.96,2.788,25.495.092,2.567,4.093,2.579,4,0-.281-7.812-1.365-15.611-2.463-23.342-1.253-8.82-2.709-17.614-4.342-26.371-1.057-5.669-1.994-11.479-3.683-17.004-1.616-5.286-3.378-10.882-6.358-15.567-2.39-3.758-5.274-7.479-8.664-10.404-4.477-3.864-9.983-6.401-15.45-8.528-4.408-1.715-8.915-3.066-13.498-4.218-2.497-.627-3.563,3.229-1.063,3.857h0Z"/><path class="h" d="M114.005,111.608c-1.817,3.658-4.667,6.582-8.244,8.549-4.204,2.311-9.052,3.051-13.794,3.111-9.047.116-18.08-2.135-26.113-6.273-3.55-1.829-6.797-3.966-9.858-6.378-.848-.668-2.001-.827-2.828,0-.694.694-.853,2.156,0,2.828,6.949,5.476,14.75,9.637,23.34,11.891,9.598,2.518,20.95,3.261,30.116-1.132,4.633-2.221,8.546-5.969,10.835-10.578,1.142-2.298-2.307-4.327-3.454-2.019h0Z"/><path class="h" d="M58.046,107.813c-6.29,2.043-12.512,4.386-18.433,7.344-4.74,2.369-9.412,5.17-13.321,8.782-7.862,7.264-11.912,18.12-15.326,28-1.917,5.548-3.618,11.168-5.291,16.793-1.699,5.71-3.296,11.419-4.32,17.297-1.831,10.512-3.168,24.147,5.454,32.233,4.357,4.086,10.555,5.457,16.379,5.566,7.8.147,15.301-2.952,22.237-6.224,2.327-1.097.299-4.547-2.019-3.454-5.635,2.658-11.857,5.345-18.161,5.648-4.755.228-10.38-.422-14.344-3.308-8.508-6.194-7.371-18.968-5.917-28.04,1.754-10.943,5.27-21.675,8.736-32.18,1.712-5.19,3.532-10.378,5.849-15.333,2.104-4.5,4.609-8.995,8.02-12.647,3.437-3.679,7.82-6.407,12.237-8.751,6.145-3.26,12.676-5.724,19.282-7.87,2.438-.792,1.395-4.656-1.063-3.857h0Z"/><path class="h" d="M128.208,186.961c.08,6.363.161,12.726.241,19.089.032,2.572,4.033,2.579,4,0-.08-6.363-.161-12.726-.241-19.089-.032-2.572-4.033-2.579-4,0h0Z"/><path class="h" d="M73.307,203.069c3.65-2.66,7.145-5.551,10.626-8.426,1.989-1.642,3.965-3.301,5.912-4.992,1.689-1.467,4.151-3.029,4.465-5.393.451-3.393-2.178-5.381-5.428-5.236-2.564.114-2.578,4.115,0,4,.532-.024.912.033,1.411.148-.213-.049.225.188-.026-.027.064.055.121.115.181.174.178.174-.177-.353-.002.015.167.352-.126-.347-.026-.027-.154-.491-.015-.203-.035.15-.011.191-.054.34-.076.526.005-.039.294-.376.1-.205-.089.078-.172.162-.258.243-1.39,1.3-2.828,2.549-4.273,3.787-3.448,2.956-6.96,5.84-10.516,8.666-1.57,1.248-2.538,2.024-4.072,3.142-.872.635-1.302,1.737-.718,2.736.503.86,1.859,1.357,2.736.718h0Z"/><path class="h" d="M57.577,172.004c-.187-3.549.324-7.352-.964-10.749-1.27-3.35-4.324-6.405-8.171-4.959-3.551,1.335-4.123,5.337-4.409,8.65-.316,3.66-.609,7.308-1.13,10.947-.535,3.738-1.095,7.41-2.922,10.773-.835,1.538-2.124,2.834-2.891,4.387-.857,1.735-.982,3.761-.268,5.566.604,1.529,1.728,2.887,2.676,4.218,1.085,1.524,2.199,3.028,3.332,4.516,1.952,2.561,4.006,6.307,7.462,6.865,2.098.339,4.112-.546,6.047-1.25,2.011-.732,3.992-1.544,5.955-2.395,3.764-1.633,7.459-3.447,11.011-5.502,2.227-1.289.215-4.747-2.019-3.454-5.441,3.149-11.221,5.847-17.163,7.904-1.091.378-2.466,1.111-3.632.653-1.121-.441-2.014-2.026-2.73-2.933-1.929-2.443-3.791-4.944-5.57-7.498-.67-.963-1.712-2.069-1.847-3.273-.163-1.457.881-2.396,1.644-3.467,1.959-2.749,3.326-5.987,4.015-9.287.621-2.976.966-6.041,1.322-9.059.371-3.141.369-6.385.928-9.495.191-1.065.385-2.667,1.557-3.121,1.356-.525,2.263.882,2.772,1.91,1.487,3.007.823,6.824.993,10.055.135,2.561,4.136,2.577,4,0h0Z"/><path class="h" d="M56.684,174.17c6.194-3.904,13.061-6.835,19.732-9.81,1.312-.585,2.626-1.164,3.94-1.743,1.245-.548,2.827-1.467,4.197-.861,1.717.759-.093,2.094-.959,2.693-2.312,1.599-4.789,2.986-7.202,4.426-5.043,3.011-10.133,5.945-15.125,9.041-2.183,1.354-.177,4.816,2.019,3.454,5.061-3.138,10.221-6.111,15.333-9.165,2.626-1.569,5.38-3.053,7.823-4.9,2.05-1.549,3.52-3.736,2.48-6.386-.953-2.428-3.457-3.527-5.972-3.292-1.847.173-3.505,1.049-5.179,1.786-3.595,1.582-7.181,3.185-10.735,4.856-4.197,1.973-8.441,3.971-12.37,6.447-2.172,1.369-.167,4.832,2.019,3.454h0Z"/><path class="h" d="M88.412,164.072c1.106-.256,2.248-.456,3.099.472.77.84.632,2.276-.017,3.158-.697.947-1.835,1.684-2.779,2.365-1.333.96-2.679,1.903-4.018,2.855-5.697,4.047-11.41,8.1-16.812,12.537-1.99,1.635.854,4.451,2.828,2.828,6.375-5.237,13.214-9.872,19.906-14.685,2.982-2.145,5.945-4.592,5.306-8.681-.304-1.94-1.557-3.642-3.346-4.483-1.683-.792-3.464-.633-5.229-.224-2.507.58-1.446,4.437,1.063,3.857h0Z"/><path class="h" d="M90.506,173.898c.418-.053.812-.049,1.23-.054-.084,0-.307-.104.066.062-.141-.063.026.043.037.063.07.129.211.435.211.433.011.769-.74,1.299-1.235,1.765-1.772,1.669-3.637,3.241-5.499,4.809-4.246,3.576-8.586,7.049-12.717,10.759-1.919,1.724.917,4.545,2.828,2.828,4.792-4.303,9.861-8.289,14.747-12.483,1.982-1.701,4.564-3.457,5.506-5.984.624-1.675.296-3.455-.872-4.8-1.088-1.252-2.711-1.599-4.304-1.398-1.071.135-2,.823-2,2,0,.976.921,2.136,2,2h0Z"/></g></svg>