<svg id="b" xmlns="http://www.w3.org/2000/svg" width="308.755" height="445.778" viewBox="0 0 308.755 445.778" style="color: initial !important;"><defs><style>.i{fill:#bdbdbd;}.j{fill:#ffffff;}.k{fill:#5394cf;}.l{fill:#211715;}.m{fill:#ffda71;}.n{fill:#fce8d1;}.o{fill:#f2635f;}.p{fill:#645d5c;}</style></defs><g id="c"><g id="d"><path class="j" d="M255.563,36.211c-.14-.035-.14-.224,0-.26,1.265-.319,2.486-.813,3.775-1.455,1.78-.887,3.323-2.409,4.291-4.416.633-1.312,1.016-2.701,1.249-4.154.024-.152.24-.152.265,0,.233,1.453.616,2.842,1.249,4.154.968,2.007,2.511,3.529,4.291,4.416,1.289.642,2.509,1.136,3.775,1.455.14.035.14.224,0,.26-1.265.319-2.486.813-3.775,1.455-1.78.887-3.323,2.409-4.291,4.416-.633,1.312-1.016,2.701-1.249,4.154-.024.152-.24.152-.265,0-.233-1.453-.616-2.842-1.249-4.154-.968-2.007-2.511-3.529-4.291-4.416-1.289-.642-2.509-1.136-3.775-1.455Z"/><path class="j" d="M2.074,126.961c-.14-.035-.14-.224,0-.26,1.265-.319,2.486-.813,3.775-1.455,1.78-.887,3.323-2.409,4.291-4.416.633-1.312,1.016-2.701,1.249-4.154.024-.152.24-.152.265,0,.233,1.453.616,2.842,1.249,4.154.968,2.007,2.511,3.529,4.291,4.416,1.289.642,2.509,1.136,3.775,1.455.14.035.14.224,0,.26-1.265.319-2.486.813-3.775,1.455-1.78.887-3.323,2.409-4.291,4.416-.633,1.312-1.016,2.701-1.249,4.154-.024.152-.24.152-.265,0-.233-1.453-.616-2.842-1.249-4.154-.968-2.007-2.511-3.529-4.291-4.416-1.289-.642-2.509-1.136-3.775-1.455Z"/><path class="j" d="M173.312,257.473c-2.247-1.747-4.38-3.779-5.119-5.609-.807-1.998-.933-4.522-.941-6.942,7.682-4.669,13.565-14.645,14.673-17.671.281-.861,1.011-2.886,1.346-5,2.373,1.182,3.802.629,5.22-.518,1.527-1.253,2.621-2.892,3.456-4.603,1.716-3.511,2.445-7.429,2.085-11.266-.098-.973-.264-1.971-.762-2.844-.705-1.245-2.096-2.153-3.619-2.369-1.523-.217-3.146.274-4.236,1.272,0,0,2.534-29.599-38.059-29.599-36.444,0-33.81,30.105-33.81,30.105-1.104-.983-2.734-1.45-4.254-1.212s-2.898,1.165-3.585,2.42c-.486.88-.638,1.88-.721,2.854-.306,3.842.478,7.749,2.243,11.235.859,1.699,1.976,3.322,3.52,4.554,1.29,1.014,2.935,2.134,5.12,1.239,1.164,4.492,3.279,9.833,7.35,14.563,2.833,3.291,5.976,5.898,9.373,7.57-.002,2.412-.122,4.948-.938,6.961-.72,1.777-2.501,3.615-4.381,5.176,0,0,2.305,17.943,20.675,17.943s25.363-18.259,25.363-18.259Z"/><path class="j" d="M46.297,150.356c.119-.132.273-.238.452-.304,4.714-1.767,18.318-6.226,22.136-7.081.552-.123,1.106.144,1.266.686.34,1.15,1.177,4.556,1.389,5.362l.299,1.016c-8.864,2.919-16.294,5.507-23.729,8.574l-.274-.85c-.444-1.926-1.392-5.196-1.764-6.459-.103-.348-.002-.694.225-.945Z"/><path class="j" d="M224.479,141.909c-.266,1.321-.671,3.743-.939,4.814l-.231.925c8.279,1.616,15.635,3.621,23.92,6.007.221.064.423.163.601.291.308-1.953,1.009-5.223,1.288-6.495.118-.54-.233-1.041-.763-1.198-4.827-1.43-18.712-4.917-22.581-5.5-.559-.084-1.093.222-1.215.774-.025.113-.052.241-.08.382Z"/><path class="i" d="M149.033,320.094c-3.403-8.112-5.978-12.917-9.094-22.145-4.687-13.881-10.6-29.282-13.928-43.55-1.49.901-3.188,2.184-4.857,3.658l-.139-.149c-1.257-1.34-2.266-2.615-3.301-3.822-.347-.405-.869-.782-1.621-.463-1.112.471-1.843.855-2.924,1.393l-3.85-2.219c-4.667-10.519-13.07-35.222-18.37-53.556-6.464-22.358-11.94-35.939-15.407-48.296-.298-1.062-1.425-1.657-2.473-1.313-9.794,3.211-17.81,5.987-25.906,9.37-.878.367-1.37,1.319-1.135,2.241,2.975,11.708,6.844,24.487,16.625,57.998,4.95,20.08,17.317,61.026,20.296,70.815,2.457,10.405,7.959,31.314,10.505,42.149,1.173,4.988,2.458,10.02,2.371,15.148-.092,5.394-1.599,10.651-3.183,15.801-5.137,16.707-12.435,35.864-18.186,53.647-.336,1.04-.886,2.099-.618,3.16.37,1.466,1.964,2.977,3.341,3.557,7.932,3.346,35.839,6.453,43.64,5.745,5.433-.493,10.321-3.85,13.634-8.247,3.314-4.397,15.52-37.185,17.294-42.42l.382-1.127c.604,2.429,1.208,4.858,1.208,4.858,4.281,17.215,7.234,34.317,10.188,39.064,1.074,1.726,2.529,3.186,4.335,4.089,1.192.596,2.834,1.035,6.435,1.167,13.063.476,40.973-.982,49.181-5.592.843-.474,1.081-1.487.833-2.431-3.582-13.607-7.434-23.236-10.421-32.337-2.997-9.131-6.218-18.571-9.269-28.994-.518-1.769-1.064-3.552-1.153-5.395-.09-1.851.272-3.69.636-5.505,4.083-20.345,7.815-37.067,12.996-57.153,3.423-12.827,13.261-56.672,17.556-74.741,6.398-26.921,7.372-30.056,13.944-58.537.233-1.01-.371-2.021-1.367-2.308-8.54-2.46-16.094-4.515-24.688-6.161-.948-.182-1.889.36-2.21,1.27-4.037,11.435-7.08,23.225-12.417,43.519-4.389,16.691-9.808,37.805-15.189,52.439l-3.096,6.021c-1.496.781-3.347.843-4.892.165-.401-.176-.816-.405-1.248-.336-.334.053-.612.276-.87.495-1.993,1.692-3.797,3.606-5.367,5.697l-.035.047c-1.177-.949-2.333-1.776-3.385-2.412-3.328,14.268-9.241,29.669-13.928,43.55-3.217,9.525-6.09,16.88-9.258,26.093-.559-1.41-1.095-2.718-1.611-3.949Z"/><path class="l" d="M96.176,428.508c-.357,5.092-.753,10.181-1.154,15.269-.085,1.078.98,2,2,2,1.153,0,1.915-.919,2-2,.401-5.089.797-10.178,1.154-15.269.076-1.079-.973-2-2-2-1.145,0-1.924.918-2,2h0Z"/><path class="l" d="M204.942,443.148c-.581-5.671-1.161-11.342-1.696-17.017-.101-1.075-.847-2-2-2-1.003,0-2.102.918-2,2,.535,5.675,1.115,11.346,1.696,17.017.11,1.074.84,2,2,2,.996,0,2.111-.919,2-2h0Z"/><path class="l" d="M165.258,245.632c.045,2.615.208,5.461,1.478,7.811,1.186,2.193,3.227,3.932,5.162,5.445.822.643,2.037.862,2.828,0,.659-.718.88-2.14,0-2.828-.936-.732-1.848-1.497-2.693-2.334-.38-.376-.746-.765-1.088-1.176-.022-.026-.257-.319-.138-.165.118.153-.096-.136-.116-.164-.149-.212-.291-.429-.42-.653-.077-.135-.32-.645-.149-.235-.101-.242-.185-.493-.263-.743-.161-.523-.28-1.058-.371-1.597-.024-.139-.046-.278-.065-.417.03.219,0-.019-.008-.105-.032-.324-.062-.648-.084-.973-.042-.621-.061-1.243-.072-1.865-.018-1.045-.907-2.049-2-2-1.068.048-2.019.879-2,2h0Z"/><path class="l" d="M128.688,259.203c1.926-1.61,3.804-3.474,4.794-5.82,1.018-2.411,1.103-5.149,1.114-7.731.004-1.046-.923-2.048-2-2-1.087.049-1.995.879-2,2-.005,1.179-.054,2.35-.156,3.525-.031.25-.034.287-.008.112-.02.141-.042.282-.065.422-.046.276-.1.551-.163.824-.061.266-.131.531-.212.792-.039.128-.081.255-.126.382-.082.208-.094.248-.038.121.063-.164-.173.355-.208.421-.12.223-.251.439-.39.65-.325.495-.367.54-.816,1.046-.782.879-1.653,1.673-2.555,2.427-.806.674-.748,2.142,0,2.828.857.787,1.969.719,2.828,0h0Z"/><path class="p" d="M113.482,202.212c1.158,1.175,1.781-1.253,2.209-2.203.682-1.513,1.679-3.72,2.411-5.208.403-.819.983-2.02,1.338-2.856.376-.885.776-1.759,1.199-2.618.855-1.739,1.801-3.423,2.83-5.044.494-.778,1.029-1.565,1.819-2.092,2.239-1.492,5.334-.322,8.076-.548,3.046-.251,5.557-2.236,8.36-3.376,3.897-1.585,9.887-2.037,13.686-.267,1.916.085,3.702-.012,5.438-.038,1.495-.023,3.596-.112,5.823.219,5.595,1.243,9.494,4.298,12.336,8.948,1.688,2.762,3.63,6.685,4.494,9.76.342,1.218.647,2.455.853,3.711.069.42.12.851.162,1.274.029.287.317.387.99-.077l-.092.127c1.084-.992,2.694-1.483,4.209-1.276,2.59-8.729,1.796-19.768-.828-26.335-1.805-4.517-4.558-9.727-10.081-12.708l-5.083-4.434c-2.3-4.589-7.066-8.499-13.311-10.68-6.544-2.286-25.577-2.547-31.935,3.029l-6.536,4.538c-7.302,3.395-12.414,11.435-14.558,19.697-2.209,8.514-2.142,20.833,1.1,27.7,1.738-.646,3.826-.209,5.153.972l-.064-.218Z"/><path class="l" d="M175.785,155.874c-3.063-6.536-10.117-10.607-16.877-12.3-7.023-1.759-14.663-1.645-21.695.008-3.286.772-6.645,1.946-9.411,3.925-.877.627-1.298,1.743-.718,2.736.507.867,1.853,1.349,2.736.718,4.635-3.315,10.848-4.354,16.42-4.587,6.612-.276,13.527.691,19.243,4.219,2.89,1.783,5.394,4.201,6.847,7.301.458.978,1.864,1.227,2.736.718,1.002-.586,1.178-1.755.718-2.736h0Z"/><path class="l" d="M181.444,220.377c-.06,1.825-.548,3.588-1.107,5.317-.15.463-.3.924-.477,1.377.126-.321.066-.146-.037.067-.101.208-.197.419-.3.626-1.04,2.092-2.309,4.08-3.669,5.977-3.333,4.646-7.805,9.513-13.452,11.191-2.462.731-1.414,4.593,1.063,3.857,6.619-1.966,11.723-7.353,15.666-12.784,3.34-4.6,6.121-9.81,6.314-15.627.085-2.575-3.915-2.572-4,0h0Z"/><path class="l" d="M113.258,221.008c1.261,6.47,3.789,12.652,7.968,17.795,4.26,5.242,10.137,9.676,16.958,10.687,1.067.158,2.15-.266,2.46-1.397.259-.943-.322-2.301-1.397-2.46-6.219-.922-11.322-4.868-15.193-9.658-3.723-4.608-5.817-10.27-6.94-16.03-.492-2.524-4.348-1.456-3.857,1.063h0Z"/><path class="l" d="M186.829,203.338c1.378-1.169,3.789-.933,4.714.693.524.922.54,2.146.569,3.18.034,1.231-.026,2.474-.24,3.688-.421,2.394-1.234,4.725-2.517,6.796-.91,1.469-2.447,3.6-4.405,3.093-2.494-.646-3.557,3.211-1.063,3.857,3.683.955,6.541-1.451,8.527-4.326,2.029-2.937,3.142-6.515,3.556-10.032.385-3.272.394-7.503-2.279-9.868-2.812-2.488-6.9-2.276-9.691.091-.824.699-.72,2.109,0,2.828.816.816,2.002.701,2.828,0h0Z"/><path class="l" d="M114.96,201.015c-2.82-2.325-6.9-2.518-9.691.005-2.717,2.455-2.574,6.78-2.131,10.11.473,3.554,1.723,7.155,3.867,10.058,2.077,2.812,5.204,5.279,8.883,4.441,2.509-.572,1.447-4.429-1.063-3.857-1.911.435-3.84-1.791-4.784-3.192-1.394-2.067-2.293-4.432-2.78-6.869-.239-1.195-.342-2.408-.339-3.627.003-1.105-.027-2.435.513-3.437.881-1.636,3.3-1.955,4.697-.803.833.687,2.013.815,2.828,0,.708-.708.838-2.138,0-2.828h0Z"/><path class="l" d="M121.044,150.965c-6.28,3.611-10.87,10.091-13.698,16.633-2.917,6.747-3.851,14.258-3.512,21.567.182,3.915.716,7.921,2.108,11.604.382,1.01,1.35,1.702,2.46,1.397.968-.266,1.781-1.445,1.397-2.46-2.289-6.057-2.383-12.949-1.689-19.314.74-6.784,3.156-13.139,7.17-18.669,2.094-2.885,4.677-5.519,7.782-7.304,2.231-1.283.219-4.74-2.019-3.454h0Z"/><path class="l" d="M177.987,162.76c11.595,7.251,13.433,24.053,10.158,36.196-.671,2.488,3.187,3.55,3.857,1.063,3.766-13.965,1.179-32.475-11.996-40.714-2.189-1.369-4.199,2.091-2.019,3.454h0Z"/><path class="l" d="M155.078,176.838c-3.685-1.652-7.725-2.124-11.676-1.199-1.874.439-3.604,1.277-5.301,2.162-1.552.81-3.152,1.714-4.934,1.853-1.802.14-3.596-.331-5.4-.219-1.991.124-3.766.878-5.038,2.448-2.469,3.047-3.928,6.81-5.595,10.313-.757,1.591-1.389,3.23-2.13,4.826-.407.876-.934,1.689-1.325,2.569-.123.277-.228.562-.358.835-.068.143-.191.297-.229.446-.057.227-.045-.034.099-.099l1.009-.273.695.296c-1.941-1.673-4.783,1.145-2.828,2.828,1.405,1.21,3.2,1.124,4.291-.448.749-1.079,1.235-2.381,1.824-3.566,1.575-3.167,2.791-6.512,4.381-9.677.878-1.749,1.816-3.548,2.958-5.142,1.111-1.551,2.672-1.437,4.419-1.293,1.889.155,3.712.287,5.568-.223,1.892-.52,3.613-1.52,5.349-2.406,3.801-1.94,8.237-2.356,12.201-.58.985.441,2.15.285,2.736-.718.5-.855.273-2.292-.718-2.736h0Z"/><path class="l" d="M147.611,167.973c.196.013.391.027.587.046.022.002.641.087.248.026.39.062.779.135,1.163.227.357.086.71.187,1.059.302.193.064.384.132.574.204.084.032.428.18.189.074,1.622.717,2.874,1.627,4.096,2.843.271.269.533.547.782.837.128.148.255.299.374.454-.225-.293.124.187.133.201.388.562.713,1.159.996,1.78.096.211-.093-.271.032.086.058.166.122.329.179.495.115.339.217.683.309,1.03.198.748.349,1.507.488,2.267.194,1.063,1.485,1.665,2.46,1.397,1.118-.307,1.592-1.394,1.397-2.46-.311-1.7-.73-3.334-1.446-4.913-.71-1.565-1.803-2.963-3.032-4.154-2.916-2.827-6.537-4.473-10.588-4.739-1.046-.069-2.046.969-2,2,.051,1.142.879,1.926,2,2h0Z"/><path class="l" d="M166.578,179.551c5.46,1.273,8.881,5.294,11.53,10.001,1.476,2.622,2.783,5.365,3.577,8.275.223.816.426,1.639.589,2.47.142.721.138,1.535.35,2.234.548,1.805,2.534,1.822,3.892.992,2.193-1.341.185-4.802-2.019-3.454-.05.102-.137.141-.259.118h1.063l-.133-.032.883.514-.083-.085.514.883c-.417-1.441-.492-3.031-.885-4.5-.379-1.418-.876-2.786-1.444-4.139-1.131-2.691-2.475-5.311-4.079-7.753-2.991-4.553-7.025-8.122-12.432-9.383-2.504-.584-3.573,3.272-1.063,3.857h0Z"/><path class="j" d="M151.683,260.572c-.066.051-.113.098-.135.138h-3.097c-.101-.189-.776-.536-1.372-.776-7.057-2.839-12.945-7.168-15.524-10.635-2.544,2.339-3.352,4.148-5.006,7.316,3.397,13.636,8.945,28.168,13.391,41.333,3.56,10.543,6.334,17.542,10.528,27.942,3.145-9.314,6.29-18.628,9.436-27.942,4.468-13.23,10.048-27.842,13.442-41.536-1.584-3.044-2.412-4.825-4.901-7.114-2.579,3.467-8.467,7.796-15.524,10.635-.471.189-.99.445-1.237.638Z"/><path class="j" d="M162.228,272.509c4.75-5.641,7.719-10.465,10.688-16.922-1.326-2.557-2.217-4.214-4.472-6.287-2.579,3.467-8.467,7.796-15.524,10.635-.596.24-1.271.587-1.372.776-.169.315.16.591.314.838.243.388,1.435,1.385,3.464,3.612,2.302,2.526,4.997,5.072,6.902,7.348Z"/><path class="j" d="M137.771,272.509c-4.75-5.641-7.719-10.465-10.688-16.922,1.326-2.557,2.217-4.214,4.472-6.287,2.579,3.467,8.467,7.796,15.524,10.635.596.24,1.271.587,1.372.776.169.315-.16.591-.314.838-.243.388-1.435,1.385-3.464,3.612-2.302,2.526-4.997,5.072-6.902,7.348Z"/><path class="k" d="M151.97,262.711c-1.742.006-3.191.009-4.952.01-.577.572-1.363,1.362-2.345,2.439-.526.577-1.072,1.155-1.625,1.731.389,2.017.661,3.291,1.09,5.126.069.323.15.634.231.957.173.692.346,1.406.346,2.121,0,.412-2.017,15.133-3.429,26.781,2.955,8.483,5.53,14.961,9.182,24.016,2.885-8.543,5.77-17.086,8.655-25.629-1.775-11.873-3.655-24.28-3.643-24.937.023-1.279.426-2.536.83-3.757.497-1.526.803-2.861,1.127-4.173-.717-.741-1.431-1.488-2.11-2.234-.99-1.086-1.78-1.88-2.359-2.453-.345.001-.676.002-.998.003Z"/><path class="l" d="M145.204,276.997c3.319-.001,6.639-.073,9.958-.075,1.046,0,2.048-.92,2-2s-.879-2-2-2c-3.319.001-6.639.073-9.958.075-1.046,0-2.048.92-2,2s.879,2,2,2h0Z"/><path class="l" d="M141.276,268.227c.379,1.91.836,3.798,1.266,5.696.143.632.18,1.161.104,1.787-.225,1.868-.483,3.733-.728,5.598-.87,6.614-1.737,13.228-2.546,19.849-.131,1.074,1.013,2,2,2,1.19,0,1.868-.923,2-2,.822-6.724,1.703-13.44,2.586-20.156.238-1.813.537-3.63.707-5.451.085-.911-.066-1.795-.267-2.691-.426-1.899-.887-3.786-1.266-5.696-.501-2.523-4.357-1.455-3.857,1.063h0Z"/><path class="l" d="M152.778,260.712c-1.968.003-3.937.009-5.905.012-1.046.002-2.048.919-2,2s.879,2.002,2,2c1.968-.004,3.937-.009,5.905-.012,1.046-.002,2.048-.919,2-2s-.879-2.002-2-2h0Z"/><path class="l" d="M161.05,299.722c-.952-6.365-1.917-12.728-2.848-19.096-.151-1.032-.301-2.065-.447-3.098-.055-.387-.109-.773-.161-1.16-.028-.205.039.319-.016-.129-.014-.11-.029-.22-.042-.33-.255-2.192.956-4.491,1.485-6.587.631-2.497-3.226-3.562-3.857-1.063-.609,2.412-1.865,4.954-1.647,7.486.153,1.774.479,3.551.736,5.312.958,6.58,1.957,13.153,2.94,19.729.16,1.069,1.509,1.658,2.46,1.397,1.145-.315,1.557-1.388,1.397-2.46h0Z"/><path class="l" d="M147.981,325.673c-1.33,4.019-2.787,8.133-2.931,12.407-.068,2.013.304,4.087.528,6.082.906,8.096,1.933,16.184,3.181,24.235.751,4.843,1.575,9.68,2.647,14.463.563,2.511,4.42,1.448,3.857-1.063-1.885-8.412-3.104-16.983-4.219-25.526-.718-5.498-1.452-11.014-1.944-16.539-.395-4.427,1.371-8.865,2.739-12.996.811-2.449-3.051-3.5-3.857-1.063h0Z"/><path class="l" d="M171.903,253.867c-2.263,9.635-5.423,19.033-8.666,28.375-3.225,9.289-6.381,18.604-9.732,27.848-1.878,5.181-3.758,10.361-5.524,15.582-.827,2.444,3.035,3.493,3.857,1.063,6.324-18.692,13.449-37.114,19.449-55.919,1.673-5.243,3.214-10.529,4.473-15.887.588-2.504-3.268-3.572-3.857-1.063h0Z"/><path class="l" d="M172.822,256.126c2.408,1.479,4.567,3.33,6.567,5.32,1.072,1.067,2.107,2.183,3.042,3.373.36.457.7.93,1.022,1.415.178.268.351.539.515.816.072.122.39.878.374.519l.273-1.009-.196.291.718-.718c-1.919,1.257-4.053,2.267-6.061,3.375-1.089.601-1.349,2.286-.405,3.141,1.84,1.667,3.671,3.346,5.418,5.111.208.21.916.896.93.936-.022-.364-.107-.307-.254.171-.14.263-.279.526-.419.79-.558,1.05-1.117,2.099-1.679,3.147-2.241,4.183-4.514,8.349-6.836,12.487-4.872,8.681-9.978,17.228-15.351,25.609-1.393,2.174,2.067,4.182,3.454,2.019,4.565-7.121,8.942-14.36,13.139-21.703,1.958-3.426,3.879-6.873,5.771-10.335,1.907-3.489,3.95-6.96,5.661-10.549,1.119-2.349-.122-3.926-1.752-5.563-1.697-1.705-3.471-3.331-5.254-4.946l-.405,3.141c1.301-.718,2.602-1.435,3.903-2.153,1.184-.653,2.875-1.259,3.273-2.709.564-2.055-1.839-4.641-3.011-6.11-2.881-3.611-6.477-6.897-10.418-9.318-2.199-1.351-4.211,2.107-2.019,3.454h0Z"/><path class="l" d="M124.082,254.931c2.299,9.788,5.522,19.33,8.82,28.818,3.084,8.872,5.932,17.857,9.657,26.487,1.906,4.415,3.915,8.782,5.718,13.241.405,1.001,1.333,1.707,2.46,1.397.949-.261,1.804-1.453,1.397-2.46-3.259-8.062-7.122-15.861-9.958-24.092-3.253-9.438-6.651-18.835-9.692-28.344-1.7-5.316-3.268-10.676-4.544-16.11-.588-2.505-4.446-1.445-3.857,1.063h0Z"/><path class="l" d="M125.001,252.672c-3.942,2.421-7.537,5.707-10.418,9.318-1.169,1.465-3.348,3.82-3.047,5.844.233,1.565,1.88,2.187,3.104,2.861,1.369.755,2.739,1.511,4.108,2.266l-.405-3.141c-1.553,1.406-3.098,2.821-4.593,4.29-1.289,1.267-2.935,2.568-2.885,4.539.024.95.528,1.802.938,2.633.46.931.928,1.859,1.401,2.784.93,1.816,1.883,3.62,2.856,5.414,3.999,7.375,8.316,14.573,12.768,21.682,2.656,4.242,5.364,8.45,8.095,12.644,1.4,2.149,4.864.147,3.454-2.019-5.615-8.622-11.137-17.311-16.302-26.212-2.431-4.19-4.782-8.427-7.005-12.73-.546-1.058-1.085-2.12-1.615-3.186-.131-.264-.262-.528-.392-.793-.135-.477-.214-.534-.238-.171.015-.041.721-.725.93-.936,1.747-1.765,3.578-3.444,5.418-5.111.944-.856.684-2.541-.405-3.141-2.009-1.108-4.143-2.119-6.061-3.375l.718.718-.196-.291.273,1.009c-.018.394.234-.282.294-.385.16-.275.329-.546.504-.813.348-.533.719-1.052,1.113-1.552.937-1.188,1.971-2.305,3.042-3.373,1.997-1.991,4.159-3.841,6.567-5.32,2.19-1.345.183-4.806-2.019-3.454h0Z"/><path class="l" d="M163.757,274.032c3.398-4.053,6.441-8.356,8.914-13.037.613-1.159,1.195-2.334,1.754-3.52.327-.694.789-1.41.67-2.204-.1-.663-.51-1.275-.824-1.862-1.127-2.107-2.491-3.996-4.24-5.632-1.028-.962-2.355-.632-3.141.405-1.644,2.168-4.049,3.996-6.343,5.513-1.539,1.017-3.14,1.94-4.787,2.772-1.595.806-3.474,1.333-4.965,2.305-3.209,2.09.461,4.994,2.04,6.639,2.72,2.833,5.555,5.624,8.094,8.621,1.666,1.967,4.483-.874,2.828-2.828-2.054-2.425-4.367-4.611-6.527-6.938-.911-.982-1.822-1.961-2.773-2.906-.268-.266-.534-.533-.802-.799-.091-.09-.172-.188-.26-.282.438.473.016,0-.135-.273l.273,1.009.028-.305-.586,1.414c.421-.441,1.839-.819,2.543-1.131.887-.393,1.763-.813,2.625-1.258,1.738-.897,3.426-1.895,5.039-3.002,2.684-1.842,5.186-3.929,7.16-6.532l-3.141.405c1.848,1.729,3.043,3.711,4.201,5.941v-2.019c-2.784,6.025-6.208,11.586-10.475,16.676-.693.827-.811,2.018,0,2.828.713.713,2.131.832,2.828,0Z"/><path class="l" d="M139.07,271.203c-4.267-5.09-7.691-10.651-10.475-16.676v2.019c1.158-2.23,2.353-4.212,4.201-5.941l-3.141-.405c1.973,2.603,4.476,4.69,7.16,6.532,1.613,1.107,3.301,2.105,5.039,3.002.862.445,1.738.864,2.625,1.258.704.312,2.121.69,2.543,1.131l-.586-1.414.028.305.273-1.009c-.11.198-.663.804-.135.273-.09.091-.167.193-.26.282-.24.232-.473.473-.71.708-.982.974-1.924,1.983-2.864,2.997-2.159,2.327-4.473,4.514-6.527,6.938-1.654,1.953,1.162,4.796,2.828,2.828,2.539-2.998,5.373-5.788,8.094-8.621,1.579-1.644,5.257-4.543,2.04-6.639-1.494-.973-3.368-1.499-4.965-2.305-1.647-.831-3.248-1.755-4.787-2.772-2.293-1.516-4.7-3.345-6.343-5.513-.786-1.037-2.113-1.367-3.141-.405-1.703,1.594-3.054,3.431-4.159,5.48-.297.55-.703,1.142-.87,1.749-.229.833.206,1.559.547,2.286.586,1.248,1.196,2.485,1.84,3.704,2.473,4.681,5.517,8.984,8.914,13.037.694.828,2.112.717,2.828,0,.82-.82.696-1.998,0-2.828Z"/><path class="l" d="M161.547,334.71c.202.182.388.378.556.592l-.313-.405c.179.239.329.49.45.763l-.202-.478c.124.296.209.601.255.92l-.071-.532c.043.343.04.683-.003,1.026l.071-.532c-.053.373-.152.734-.296,1.083l.202-.478c-.116.271-.257.53-.434.766l.313-.405c-.166.213-.358.399-.571.565l.405-.313c-.252.188-.522.34-.811.463l.478-.202c-.341.138-.691.23-1.055.283l.532-.071c-.41.054-.821.056-1.232.004l.532.071c-.348-.049-.685-.136-1.01-.269l.478.202c-.245-.106-.474-.234-.688-.394l.405.313c-.25-.196-.472-.421-.67-.669l.313.405c-.181-.238-.331-.49-.448-.766l.202.478c-.092-.235-.157-.475-.194-.724l.071.532c-.037-.294-.035-.585,0-.879l-.071.532c.053-.371.156-.725.301-1.071l-.202.478c.183-.418.418-.806.696-1.167l-.313.405c.162-.205.334-.39.539-.553l-.405.313c.23-.175.477-.317.741-.433l-.478.202c.349-.146.711-.242,1.086-.293l-.532.071c.357-.042.713-.043,1.07.003l-.532-.071c.303.045.596.121.88.235l-.478-.202c.258.111.497.248.719.42l-.405-.313c.04.032.079.064.118.098.408.351.861.586,1.414.586.491,0,1.076-.218,1.414-.586.687-.748.848-2.101,0-2.828-1.022-.877-2.238-1.346-3.59-1.375-1.102-.023-2.322.278-3.247.889-2.004,1.322-3.12,3.94-2.617,6.291.28,1.309,1.177,2.413,2.245,3.175.879.627,2.023.895,3.087.934,2.076.076,4.314-.947,5.279-2.851.497-.98.812-2.127.707-3.234-.077-.807-.253-1.479-.609-2.21-.296-.609-.753-1.167-1.255-1.619-.394-.355-.874-.586-1.414-.586-.491,0-1.076.218-1.414.586-.701.764-.83,2.081,0,2.828Z"/><path class="l" d="M194.653,245.255c3.511-9.58,6.318-19.416,9.021-29.249,2.869-10.438,5.567-20.923,8.324-31.39,2.274-8.636,4.531-17.284,7.145-25.824.551-1.8,1.12-3.595,1.71-5.382.273-.827.552-1.652.835-2.476.121-.353.202-.764.379-1.092.274-.508-.015-.409.655-.28,5.659,1.091,11.258,2.484,16.816,4.005,1.373.376,2.744.759,4.114,1.147.7.199,1.4.398,2.099.599.055.016,1.137.448.915.12.149.22-.479,2.073-.547,2.367-.14.603-.279,1.207-.419,1.81-.326,1.408-.653,2.815-.981,4.223-.984,4.226-1.977,8.45-2.982,12.671-1.617,6.79-3.273,13.571-4.914,20.355-3.694,15.273-7.248,30.577-10.773,45.891-3.302,14.346-6.508,28.726-10.118,42.999-.25.989-.504,1.977-.767,2.962-.663,2.49,3.194,3.552,3.857,1.063,3.673-13.793,6.695-27.776,9.899-41.682,3.639-15.793,7.275-31.585,11.075-47.34,1.724-7.149,3.473-14.292,5.183-21.445.991-4.147,1.969-8.297,2.939-12.449.622-2.664,1.241-5.329,1.858-7.995.313-1.354.885-2.86.55-4.255-.307-1.278-1.233-2.29-2.451-2.759-2.819-1.088-5.911-1.721-8.828-2.507s-5.825-1.526-8.759-2.205c-1.371-.317-2.746-.621-4.124-.91-1.436-.301-3.054-.85-4.526-.738-2.741.208-3.451,2.743-4.196,4.929-2.686,7.879-4.908,15.907-7.065,23.944-5.65,21.056-10.612,42.369-17.442,63.086-.745,2.26-1.522,4.509-2.34,6.743-.887,2.421,2.977,3.464,3.857,1.063h0Z"/><path class="l" d="M215.166,288.71c-4.633,17.977-8.73,36.076-12.415,54.271-.459,2.267-.992,4.538-1.222,6.843-.234,2.352.192,4.639.835,6.895,1.306,4.584,2.738,9.135,4.196,13.673,2.524,7.855,5.087,15.704,7.81,23.492,2.702,7.731,5.347,15.474,7.499,23.379.167.612.275,1.306.507,1.895.028.072.024.181.007.254-.057.249.208-.215.006-.041-.311.266-.84.43-1.213.589.311-.133-.27.103-.353.135-.23.088-.462.172-.695.253-.576.2-1.159.381-1.745.549-2.66.762-5.39,1.278-8.121,1.711-6.546,1.037-13.184,1.543-19.8,1.856-5.998.284-12.152.596-18.145.068-3.126-.276-5.498-1.432-7.194-4.355-1.106-1.906-1.753-4.37-2.403-6.717-2.233-8.068-3.84-16.31-5.733-24.462-.558-2.404-1.132-4.804-1.726-7.2-.619-2.497-4.478-1.439-3.857,1.063,2.26,9.111,4.123,18.314,6.363,27.43,1.461,5.944,2.79,13.275,8.55,16.63,2.785,1.622,6.153,1.69,9.288,1.769,2.937.074,5.875.054,8.812-.013,6.895-.158,13.796-.574,20.649-1.365,5.7-.658,11.731-1.34,17.107-3.47,1.199-.475,2.576-.97,3.391-2.019,1.527-1.966.494-4.432-.092-6.551-1.188-4.294-2.505-8.551-3.912-12.778-2.489-7.478-5.135-14.901-7.611-22.384-1.457-4.402-2.911-8.806-4.312-13.226-.77-2.428-1.524-4.862-2.257-7.301-.671-2.233-1.528-4.524-1.844-6.842-.322-2.362.27-4.72.734-7.02.491-2.438.988-4.875,1.491-7.311.964-4.668,1.954-9.33,2.976-13.985,2.011-9.157,4.158-18.283,6.436-27.377.608-2.426,1.225-4.85,1.85-7.273.643-2.494-3.214-3.558-3.857-1.063h0Z"/><path class="l" d="M81.018,290.588c1.97,8.328,4.13,16.612,6.232,24.907,1.057,4.171,2.111,8.342,3.136,12.52,1.178,4.804,2.537,9.645,3.162,14.557.776,6.098-.425,11.941-2.147,17.772-1.572,5.324-3.324,10.596-5.107,15.852-3.755,11.067-7.742,22.055-11.473,33.13-.91,2.702-1.858,5.401-2.71,8.121-.821,2.622.233,4.979,2.305,6.668,2.285,1.862,5.548,2.493,8.362,3.128,7.553,1.704,15.307,2.675,23.008,3.408,3.412.325,6.836.59,10.263.685,3.193.089,6.398.03,9.437-1.088,4.331-1.593,8.305-4.664,10.891-8.503,1.084-1.609,1.862-3.459,2.659-5.22,5.218-11.539,9.668-23.491,13.939-35.409.237-.661.473-1.322.698-1.987.83-2.443-3.032-3.491-3.857-1.063-3.704,10.904-7.949,21.704-12.432,32.308-.969,2.292-2.001,4.684-3.131,6.952-1.151,2.311-2.588,4.159-4.567,5.879-2.95,2.564-6.555,4.04-10.457,4.147-2.907.079-5.826-.096-8.724-.304-7.455-.534-14.911-1.424-22.264-2.771-2.937-.538-5.892-1.127-8.741-2.036-1.399-.446-2.802-.936-3.545-2.349-.454-.864.217-1.925.497-2.773.453-1.37.895-2.743,1.35-4.112,3.594-10.811,7.467-21.526,11.171-32.299,1.757-5.112,3.479-10.237,5.092-15.397,1.732-5.538,3.453-11.171,3.727-17.007s-1.204-11.528-2.531-17.138c-.888-3.753-1.824-7.495-2.765-11.235-2.141-8.513-4.34-17.012-6.441-25.535-.4-1.622-.795-3.246-1.18-4.872-.592-2.504-4.45-1.444-3.857,1.063h0Z"/><path class="l" d="M122.428,256.494c-.674-.722-1.321-1.469-1.957-2.226-.538-.639-1.043-1.406-1.697-1.93-.606-.485-1.279-.827-2.077-.833-.739-.006-1.355.273-2.016.564-.856.377-1.687.803-2.524,1.22-.938.468-1.276,1.87-.718,2.736.619.96,1.733,1.218,2.736.718.714-.356,1.424-.721,2.15-1.053.189-.086.379-.173.57-.253.259-.109-.325.135-.081.048.232-.083-.452-.017-.119.021-.056-.006-.474-.102-.222-.011l-.293-.12c.129.081.117.065-.036-.048-.275-.241.09.104.153.175,1.119,1.259,2.15,2.59,3.301,3.822.716.767,2.115.777,2.828,0,.754-.821.763-2.011,0-2.828h0Z"/><path class="l" d="M178.978,257.774c.206-.273.62-.79.978-1.212.423-.499.859-.985,1.309-1.46.862-.91,1.769-1.857,2.767-2.62-.198.152.063-.065.089-.048l-.738.085.209.059c-.249-.152.428.182.373.159.173.073.345.148.52.214.64.239,1.329.346,2.007.404,1.44.123,2.863-.245,4.145-.884.938-.468,1.276-1.87.718-2.736-.619-.96-1.733-1.218-2.736-.718-.297.148.014.016-.17.083-.127.047-.255.088-.384.125-.162.046-.326.084-.491.118-.126.026-.286.027-.069.012-.338.024-.672.025-1.011-.001.217.017.056.013-.069-.014-.165-.035-.329-.073-.491-.12s-.322-.101-.478-.163c.2.079-.056-.031-.115-.057-.469-.205-.87-.336-1.372-.404-1.09-.147-1.964.39-2.765,1.056-2.144,1.784-4.001,3.881-5.679,6.102-.633.838-.161,2.272.718,2.736,1.053.556,2.06.177,2.736-.718h0Z"/><path class="l" d="M84.875,289.525c-4.347-14.284-8.6-28.599-12.711-42.953-2.359-8.238-4.687-16.488-6.813-24.79-2.588-10.104-5.75-20.077-8.678-30.087-1.97-6.735-3.944-13.469-5.835-20.227-.702-2.508-1.389-5.019-2.053-7.538-.145-.552-1.014-2.879-.808-3.173.039-.056,1.088-.396,1.255-.464.642-.262,1.285-.522,1.929-.778,1.355-.54,2.715-1.066,4.08-1.582,5.604-2.117,11.279-4.042,16.969-5.916.419-.138.95-.412,1.387-.456.125-.013.119-.008-.023-.072.177.08-.015-.12.073.121.079.213.126.445.188.664.27.942.548,1.882.833,2.82.58,1.911,1.188,3.814,1.809,5.712,3.033,9.272,6.269,18.474,9.178,27.787,3.398,10.882,6.477,21.851,10.035,32.684,3.052,9.289,6.213,18.568,9.851,27.646.657,1.638,1.334,3.269,2.048,4.883.437.988,1.879,1.219,2.736.718,1.018-.596,1.156-1.745.718-2.736-3.668-8.297-6.652-17.155-9.578-25.818-3.621-10.717-6.848-21.538-10.095-32.371-3.085-10.292-6.566-20.45-9.97-30.639-1.302-3.895-2.576-7.801-3.707-11.75-.344-1.203-.743-2.289-1.842-3.011-1.287-.846-2.62-.724-4.013-.266-3.004.987-6.004,1.988-8.993,3.021-2.836.98-5.663,1.991-8.471,3.049-2.728,1.028-5.616,1.963-8.224,3.273-3.653,1.835-1.554,6.492-.758,9.463,1.584,5.91,3.281,11.79,4.987,17.666,2.803,9.651,5.642,19.291,8.462,28.937,2.548,8.714,4.737,17.528,7.19,26.271,4.51,16.076,9.262,32.085,14.102,48.064.294.971.588,1.941.884,2.911.747,2.456,4.61,1.409,3.857-1.063h0Z"/><g id="e"><path class="n" d="M59.103,21.324c.147,10.886.926,98.138.995,103.519,15.695-.207,160.148-1.852,171.264-1.852-.197-14.612-1.761-97.243-1.839-103.037-10.628.143-155.609,1.37-170.419,1.37Z"/><path class="o" d="M76.729,93.763c-.278,2.557-.278,5.381.089,7.997.247,1.761,1.531,2.846,3.245,3.185,2.601.515,6.294.262,8.984-.087,1.774-.23,3.032-1.486,3.185-3.268.224-2.621.235-5.865-.136-8.269-.264-1.711-1.492-2.857-3.231-3.166-3.144-.559-6.332-.417-8.938.046-1.877.333-3.004,1.784-3.197,3.562Z"/><path class="l" d="M83.912,77.121c.003,2.144.13,4.285.082,6.43-.023,1.047.937,2.048,2,2,1.104-.049,1.975-.879,2-2,.048-2.144-.079-4.286-.082-6.43-.001-1.046-.919-2.048-2-2s-2.001.879-2,2h0Z"/><path class="l" d="M57.103,21.324c.062,4.623.102,9.247.148,13.871.08,8.121.157,16.242.233,24.362.086,9.195.172,18.39.257,27.585.074,8,.148,16,.223,24.001.041,4.384.078,8.767.127,13.151.002.183.004.366.006.549.013,1.07.905,2.014,2,2,7.337-.097,14.674-.178,22.011-.263,13.262-.154,26.525-.305,39.787-.455,15.227-.172,30.454-.341,45.681-.507,13.342-.145,26.683-.289,40.025-.423,7.574-.076,15.147-.168,22.721-.202.346-.002.692-.003,1.039-.003,1.07,0,2.015-.916,2-2-.179-13.232-.447-26.464-.688-39.695-.303-16.643-.612-33.285-.915-49.927-.081-4.471-.176-8.943-.237-13.415-.015-1.07-.904-2.015-2-2-6.548.088-13.098.132-19.646.191-12.861.116-25.723.227-38.584.336-15.227.129-30.454.255-45.68.377-13.577.109-27.154.216-40.731.314-8.16.059-16.32.129-24.48.151-.432.001-.864.002-1.296.002-2.574,0-2.578,4,0,4,7.206,0,14.413-.073,21.618-.123,13.199-.093,26.399-.196,39.598-.301,15.246-.121,30.491-.247,45.737-.375,13.279-.112,26.559-.226,39.838-.344,7.542-.067,15.085-.128,22.627-.214.334-.004.667-.008,1.001-.012l-2-2c.152,11.132.398,22.264.603,33.395.317,17.23.636,34.461.939,51.691.105,5.983.217,11.967.298,17.951l2-2c-6.616.001-13.234.1-19.85.166-12.892.127-25.784.265-38.677.405-15.206.165-30.413.333-45.619.504-13.669.154-27.338.309-41.007.467-8.249.095-16.499.189-24.748.293-.454.006-.909.012-1.363.018l2,2c-.047-3.76-.075-7.521-.111-11.282-.072-7.674-.143-15.348-.214-23.021-.085-9.168-.17-18.337-.256-27.505-.079-8.394-.158-16.788-.24-25.181-.051-5.193-.098-10.387-.162-15.58-.004-.316-.008-.633-.012-.949-.035-2.572-4.035-2.579-4,0Z"/><path class="l" d="M195.079,37.577c-4.59,4.52-8.803,9.384-13.222,14.067-.741.785-.779,2.049,0,2.828.749.749,2.085.788,2.828,0,4.419-4.683,8.632-9.547,13.222-14.067,1.837-1.809-.992-4.637-2.828-2.828h0Z"/><path class="l" d="M196.675,41.295c.1.076.199.152.299.228.299.227-.226-.176-.143-.11.091.071.184.142.275.213.432.335.862.671,1.293,1.007,1.197.936,2.393,1.874,3.588,2.813,2.63,2.067,5.258,4.136,7.882,6.21.862.681,1.725,1.361,2.582,2.047.843.674,2.005.823,2.828,0,.699-.699.848-2.15,0-2.828-4.568-3.656-9.179-7.26-13.788-10.864-.93-.727-1.857-1.459-2.798-2.171-.862-.652-2.237-.137-2.736.718-.6,1.025-.147,2.083.718,2.736h0Z"/><path class="l" d="M193.313,52.417c2.934-.39,5.894-.552,8.836-.867.545-.058,1.013-.184,1.414-.586.347-.347.608-.916.586-1.414-.044-.988-.886-2.119-2-2-2.942.315-5.902.477-8.836.867-.552.073-1.003.175-1.414.586-.347.347-.608.916-.586,1.414.043.965.889,2.148,2,2h0Z"/><path class="l" d="M189.481,56.607c.227,2.918.521,5.829.899,8.731.072.552.176,1.004.586,1.414.347.347.916.608,1.414.586.967-.043,2.145-.889,2-2-.379-2.902-.672-5.814-.899-8.731-.081-1.041-.862-2.051-2-2-1.014.045-2.087.883-2,2h0Z"/><path class="l" d="M192.092,59.036c3.688-.475,7.413-.717,11.122-.95.415-.026.211-.012-.08-.132.193.115.167.092-.078-.068-.244-.236-.362-.513-.351-.831.022.341.03-.103.007-.081-.032.032-.037.162-.048.204-.138.528-.225,1.075-.336,1.609-.316,1.515-.626,3.043-1.095,4.52-.317.997.372,2.227,1.397,2.46,1.092.249,2.121-.329,2.46-1.397.407-1.281.688-2.602.968-3.915.218-1.025.518-2.08.627-3.124.113-1.084-.456-2.13-1.353-2.72s-1.89-.541-2.904-.475c-1.758.115-3.514.244-5.27.391-1.691.141-3.383.292-5.066.508-1.034.133-2.053.824-2,2,.043.969.889,2.143,2,2h0Z"/><path class="l" d="M192.534,66.935c3.7-.284,7.404-.528,11.108-.769,1.042-.068,2.051-.871,2-2-.046-1.025-.882-2.073-2-2-3.703.241-7.407.485-11.108.769-1.041.08-2.051.863-2,2,.045,1.015.883,2.086,2,2h0Z"/><path class="l" d="M182.818,82.023c4.244-.86,8.397-1.377,12.676-1.866,1.036-.118,2.052-.835,2-2-.044-.982-.887-2.127-2-2-4.599.526-9.2,1.089-13.739,2.009-1.059.215-1.669,1.47-1.397,2.46.303,1.102,1.398,1.612,2.46,1.397h0Z"/><path class="l" d="M202.104,78.504c3.222-.385,6.44-.778,9.674-1.05,1.04-.087,2.051-.857,2-2-.045-1.009-.884-2.094-2-2-3.234.271-6.452.665-9.674,1.05-1.035.124-2.052.831-2,2,.044.977.887,2.133,2,2h0Z"/><path class="l" d="M187.498,73.198c-.33,8.914-.49,17.833-.692,26.751-.058,2.575,3.942,2.574,4,0,.202-8.917.361-17.837.692-26.751.095-2.574-3.905-2.57-4,0h0Z"/><path class="l" d="M187.545,79.795c-2.566,3.746-5.054,6.924-7.843,10.395-.654.814-.855,2.044,0,2.828.727.667,2.129.871,2.828,0,2.932-3.649,5.823-7.341,8.469-11.205.593-.866.191-2.256-.718-2.736-1.016-.537-2.104-.206-2.736.718h0Z"/><path class="l" d="M189.389,84.363c.668.65,1.279,1.363,1.884,2.071.668.782,1.325,1.575,1.954,2.389l-.313-.405.031.04c.126.233.297.42.515.561.193.177.42.296.68.358.479.132,1.116.072,1.541-.202.427-.275.803-.685.919-1.195.111-.486.118-1.126-.202-1.541-.729-.946-1.478-1.874-2.254-2.782-.619-.725-1.244-1.456-1.928-2.122-.371-.361-.894-.586-1.414-.586-.491,0-1.076.218-1.414.586-.35.381-.61.882-.586,1.414.024.526.2,1.038.586,1.414h0Z"/><path class="l" d="M201.3,72.496c-.81,1.347-1.685,2.655-2.607,3.928-.232.32-.467.638-.705.954-.111.147-.231.289-.335.44.067-.098.216-.278.06-.079-.07.089-.14.179-.211.268-.475.601-.962,1.192-1.464,1.771-.685.79-.835,2.062,0,2.828.751.69,2.097.844,2.828,0,2.181-2.517,4.169-5.237,5.886-8.092.54-.897.229-2.236-.718-2.736-.969-.512-2.16-.24-2.736.718h0Z"/><path class="l" d="M210.051,74.445c-1.216,1.67-2.384,3.379-3.677,4.992-1.385,1.727-2.935,3.302-4.476,4.888-2.825,2.91-5.758,5.679-8.945,8.192-.849.669-.701,2.128,0,2.828.838.838,1.977.671,2.828,0,3.269-2.577,6.267-5.427,9.161-8.415,1.545-1.595,3.088-3.182,4.467-4.926,1.425-1.802,2.743-3.683,4.095-5.54.636-.874.149-2.23-.718-2.736-1.012-.592-2.099-.158-2.736.718h0Z"/><path class="l" d="M199.514,81.999c4.677,3.082,9.464,6.19,13.619,9.811.814.709,2.028.801,2.828,0,.724-.724.818-2.116,0-2.828-4.471-3.896-9.486-7.179-14.429-10.436-.902-.595-2.212-.179-2.736.718-.571.977-.187,2.14.718,2.736h0Z"/><path class="l" d="M197.691,92.671c.193,2.479.442,4.952.764,7.417.072.552.176,1.004.586,1.414.347.347.916.608,1.414.586.517-.023,1.054-.193,1.414-.586.332-.361.652-.903.586-1.414-.322-2.465-.571-4.939-.764-7.417-.081-1.041-.862-2.051-2-2-1.014.045-2.087.883-2,2h0Z"/><path class="l" d="M200.21,95.036c3.133-.404,6.297-.609,9.448-.807.469-.029-.006-.038-.22-.154.186.111.143.076-.127-.105-.266-.261-.394-.568-.387-.919.013.336.047-.201.017-.149-.027.046-.028.123-.041.173-.117.449-.191.913-.286,1.367-.269,1.287-.532,2.585-.93,3.839-.317.997.372,2.227,1.397,2.46,1.092.249,2.121-.329,2.46-1.397.346-1.088.585-2.21.822-3.326.191-.897.452-1.82.544-2.734.103-1.025-.45-2.018-1.299-2.57-.807-.525-1.703-.505-2.619-.445-1.493.098-2.985.207-4.476.332-1.436.12-2.874.248-4.304.432-1.034.133-2.053.824-2,2,.043.969.889,2.143,2,2h0Z"/><path class="l" d="M200.682,101.584c3.109-.213,6.225-.393,9.339-.492,1.045-.033,2.049-.896,2-2-.047-1.055-.88-2.036-2-2-3.115.099-6.23.278-9.339.492-1.042.071-2.051.869-2,2,.046,1.022.882,2.077,2,2h0Z"/><path class="l" d="M168.016,84.621c.124-14.248-.16-28.488-.203-42.736-.008-2.573-4.008-2.578-4,0,.043,14.248.327,28.487.203,42.736-.022,2.575,3.978,2.577,4,0h0Z"/><path class="l" d="M132.162,78.25c-.003,5.83-.196,11.652.029,17.481.099,2.566,4.099,2.579,4,0-.224-5.829-.032-11.651-.029-17.481.002-2.574-3.998-2.578-4,0h0Z"/><path class="l" d="M150.079,81.213c2.574,0,2.578-4,0-4s-2.578,4,0,4h0Z"/><path class="l" d="M148.197,46.065c.078,4.78-.021,9.554-.121,14.333-.081,3.858.146,7.7.143,11.556-.002,2.574,3.998,2.578,4,0,.003-3.856-.224-7.698-.143-11.556.1-4.779.199-9.553.121-14.333-.042-2.571-4.042-2.579-4,0h0Z"/><path class="l" d="M132.171,40.769c-.233,9.879.034,19.752.2,29.63.043,2.571,4.043,2.579,4,0-.166-9.877-.433-19.751-.2-29.63.061-2.575-3.939-2.574-4,0h0Z"/><path class="l" d="M116.875,44.028c.144,9.774-.257,19.558-.211,29.334.019,4.173.043,8.345.032,12.518-.007,2.574,3.993,2.578,4,0,.032-11.796.013-23.584.148-35.38.025-2.157.064-4.316.032-6.473-.038-2.572-4.038-2.579-4,0h0Z"/><path class="l" d="M101.393,46.806c-.172,2.51-.054,5.027.001,7.539.053,2.414-.034,4.824-.038,7.238-.004,2.574,3.996,2.578,4,0,.004-2.414.091-4.824.038-7.238-.055-2.512-.173-5.029-.001-7.539.074-1.079-.972-2-2-2-1.144,0-1.926.918-2,2h0Z"/></g><g id="f"><path class="j" d="M221.297,103.676c.097-.218.24-.438.436-.659,1.786-2.016,7.374-3.88,11.006-3.393,3.57.479,7.335,3.099,10.849,6.165,2.333,2.356,2.591,7.274,2.923,12.727.262,4.303-1.824,20.367-2.825,23.768l-.545,2.537c-4.269-1.121-9.655-2.452-13.489-3.299l.148-.67c-2.398-.818-3.53-1.691-4.196-4.321-.419-1.654-.112-1.995-1.228-3.286-.722-.835-2.42-1.497-3.426-1.95-3.215-1.447-3.227-5.759-.738-7.167-1.942-2.328-1.671-5.849-.304-6.961.329-.267.668-.471,1.014-.624l-.196-.313c-1.035-1.178-1.882-3.911-1.251-5.423.554-1.327,2.938-2.527,4.452-2.653l-.789-.718c-1.319-1.2-2.422-2.449-1.839-3.762Z"/><path class="l" d="M221.034,126.308c.108.012.216.026.324.038.268.031-.246-.033-.262-.035.064.011.128.018.192.028.287.042.574.088.86.137.725.124,1.448.266,2.168.419,1.765.375,3.515.82,5.245,1.332,1.003.297,2.224-.358,2.46-1.397.245-1.074-.323-2.142-1.397-2.46-3.126-.925-6.345-1.702-9.591-2.062-1.043-.116-2.045,1.003-2,2,.053,1.183.882,1.876,2,2h0Z"/><path class="l" d="M224.55,106.024c-.38-.352-1.143-.909-1.319-1.433-.07-.207-.16-.099.161-.411.621-.603,1.48-1.014,2.267-1.355,1.971-.854,4.298-1.427,6.458-1.262,2.383.182,4.597,1.519,6.517,2.843,1.82,1.255,3.884,2.567,4.644,4.733.821,2.342.946,4.907,1.107,7.361.105,1.59.174,3.14.093,4.73-.182,3.585-.601,7.164-1.06,10.723-.419,3.249-.756,6.639-1.662,9.799-.711,2.479,3.148,3.537,3.857,1.063.976-3.403,1.31-7.063,1.765-10.56.529-4.062,1.059-8.175,1.147-12.276.05-2.348-.176-4.739-.447-7.067-.31-2.658-.747-5.52-2.394-7.718-.859-1.146-2.054-2.001-3.178-2.873-1.396-1.083-2.842-2.11-4.41-2.932-2.501-1.312-5.171-2.058-8.006-1.768-2.896.297-6.008,1.153-8.419,2.841-1.324.928-2.465,2.162-2.533,3.865-.074,1.85,1.325,3.356,2.582,4.523,1.885,1.749,4.72-1.073,2.828-2.828h0Z"/><path class="l" d="M236.907,108.423c-2.379-.802-4.779-1.577-7.27-1.945-2.31-.342-5.055-.729-7.327-.026-2.094.648-4.458,2.084-4.928,4.393-.479,2.355.421,4.989,1.926,6.801.691.831,2.114.714,2.828,0,.823-.823.692-1.995,0-2.828.233.281-.134-.218-.147-.239-.095-.158-.182-.322-.261-.489-.082-.174-.242-.641-.328-.976-.113-.437-.132-.639-.144-.985-.003-.096.022-.501-.018-.221.004-.028.171-.639.035-.249.1-.287-.042.002.077-.137.113-.132.242-.255.375-.367-.145.122.328-.223.326-.222.166-.105.338-.201.512-.292.308-.161.513-.249.915-.366.17-.049.341-.092.514-.126.15-.028.133-.027-.052.002.111-.008.223-.012.334-.013,1.899.003,3.741.053,5.55.413,2.049.407,4.04,1.061,6.017,1.728,1.023.345,2.186-.397,2.46-1.397.3-1.093-.37-2.114-1.397-2.46h0Z"/><path class="l" d="M233.907,115.939c-2.221-.581-4.48-.89-6.744-1.248-2.176-.345-4.473-.951-6.622-.139-1.14.431-2.194,1.113-2.846,2.169-.506.82-.724,1.748-.831,2.692-.251,2.23.531,4.36,1.898,6.092.67.848,2.128.701,2.828,0,.838-.838.672-1.978,0-2.828.204.258-.111-.185-.145-.241-.101-.166-.189-.338-.278-.511-.2-.391.017.157-.086-.228-.056-.211-.128-.416-.176-.63-.015-.064-.099-.604-.073-.364.026.244-.012-.296-.014-.355-.005-.173.007-.345.007-.517.004-.084.01-.168.019-.252-.035.232-.04.274-.015.127.05-.145.062-.311.103-.46.037-.133.261-.612.022-.144.062-.121.132-.239.193-.36.162-.32-.292.229-.004.005.293-.227-.42.215.152-.128.191-.114.378-.243.587-.324-.277.108.323-.075.324-.075.076-.019.635-.083.282-.058.406-.029.812-.023,1.218.01.016.001.649.08.263.023.193.028.386.061.578.094.888.152,1.775.298,2.666.432,1.893.284,3.775.592,5.629,1.077,1.044.273,2.172-.346,2.46-1.397.284-1.034-.348-2.186-1.397-2.46h0Z"/><path class="l" d="M230.33,138.924c-.572-.199-.696-.242-1.054-.427-.161-.084-.32-.173-.473-.27-.098-.062-.194-.128-.288-.197.18.138.184.133.012-.013-.112-.127-.24-.239-.349-.37.274.326-.089-.166-.137-.249-.035-.061-.292-.612-.171-.316-.082-.201-.148-.413-.211-.621-.259-.857-.297-1.773-.603-2.612-.428-1.175-1.258-2.152-2.279-2.859-.817-.566-1.743-.936-2.645-1.342-.251-.113-.496-.23-.73-.375-.325-.201.065.107-.226-.171-.137-.131-.275-.267-.391-.418.229.298-.151-.306-.185-.372.157.299-.027-.079-.062-.195-.051-.171-.091-.346-.12-.522.077.469.021-.258.016-.348-.026-.469-.106.291.011-.16.051-.196.096-.388.164-.579.05-.136.039-.107-.035.085.05-.101.105-.2.164-.297.183-.375-.21.151.095-.134.077-.083.158-.162.243-.237-.184.132-.181.133.008.003.896-.601,1.287-1.763.718-2.736-.52-.889-1.835-1.322-2.736-.718-2.116,1.42-2.987,3.89-2.472,6.359.23,1.102.831,2.16,1.616,2.962.892.911,1.998,1.317,3.119,1.849.287.136.573.278.849.435.086.049.666.445.508.309.101.087.441.488.411.444.072.106.138.215.197.328-.082-.224-.087-.232-.015-.025.197,1.012.366,2.041.733,3.009.948,2.504,2.798,3.783,5.255,4.637,1.02.355,2.188-.404,2.46-1.397.303-1.101-.373-2.104-1.397-2.46h0Z"/></g><g id="g"><path class="j" d="M51.66,104.128c1.865-1.351,3.766-2.35,5.654-2.734,3.591-.732,9.292.75,11.21,2.641,1.481,1.46.339,3.006-1.1,4.506,0,0-.309.322-.741.767,1.523.026,3.981,1.062,4.624,2.349.732,1.466.072,4.25-.881,5.495l-.189.32c.36.129.717.312,1.068.559,1.439,1.017,1.948,4.511.168,6.965,2.578,1.236,2.858,5.539-.251,7.2-.974.52-2.623,1.295-3.287,2.177-1.026,1.364-.697,1.683-1.003,3.362-.487,2.669-1.557,3.616-3.894,4.595l.566,2.125c-3.879,1.182-8.824,2.796-12.62,4.097l-.694-2.276c-1.141-3.596-5.407-20.79-5.436-25.101-.037-5.463-.113-10.388,2.055-12.896,1.535-1.534,3.13-2.975,4.753-4.15Z"/><path class="l" d="M70.129,123.301c-3.032.546-6.022,1.529-8.904,2.599-.978.363-1.75,1.37-1.397,2.46.31.958,1.41,1.787,2.46,1.397,2.881-1.07,5.872-2.053,8.904-2.599,1.032-.186,1.709-1.497,1.397-2.46-.358-1.108-1.354-1.596-2.46-1.397h0Z"/><path class="l" d="M68.837,109.955c1.16-1.234,2.452-2.74,2.376-4.552-.068-1.621-1.137-2.833-2.428-3.692-2.182-1.451-4.944-2.101-7.514-2.392-2.876-.326-5.583.185-8.149,1.529-2.816,1.475-5.774,3.785-7.806,6.231-1.848,2.224-2.227,5.292-2.392,8.077-.144,2.426-.243,4.943.02,7.364.444,4.094,1.393,8.146,2.314,12.153.933,4.057,1.852,8.16,3.101,12.134.769,2.447,4.632,1.402,3.857-1.063-2.049-6.52-3.538-13.341-4.77-20.057-.136-.741-.265-1.483-.377-2.228-.071-.469-.134-.857-.186-1.599-.166-2.338-.096-4.762.067-7.098.148-2.118.461-4.198,2.034-5.722,2.028-1.964,4.252-3.935,6.864-5.086,2.343-1.033,4.903-.871,7.337-.252,1.081.275,2.152.621,3.123,1.18.2.115.893.441.922.707.036.331-.972,1.272-1.221,1.537-1.761,1.875,1.061,4.709,2.828,2.828h0Z"/><path class="l" d="M54.942,114.271c3.726-1.544,7.568-2.959,11.632-2.963.418,0,1.148.167,1.624.374.365.159.745.36,1.063.602-.231-.175.17.171.213.21.256.24.013-.132.105.171-.104-.343.022.177.036.251-.051-.281.001.099.002.205.002.433-.018.697-.07.948-.189.917-.343,1.374-.849,2.072-.634.876-.151,2.229.718,2.736,1.01.591,2.101.16,2.736-.718,1.257-1.736,1.815-4.422,1.277-6.503-.59-2.282-3.014-3.647-5.169-4.138-2.319-.528-4.995-.032-7.283.467-2.451.534-4.787,1.469-7.097,2.427-.997.413-1.709,1.326-1.397,2.46.259.942,1.456,1.813,2.46,1.397h0Z"/><path class="l" d="M58.444,121.568c1.797-.602,3.631-1.035,5.48-1.442.873-.192,1.743-.393,2.611-.605.397-.097.795-.19,1.197-.261.103-.019.206-.036.309-.051-.15.023-.153.027-.01.012.211-.015.422-.026.634-.022.091.001.481.02.213-.01.216.025.429.088.638.148.273.078.124.013.364.159.143.08.281.167.414.261l-.211-.156c.068-.071.369.601.035-.005.066.12.15.252.224.368.234.369-.082-.353.042.09.044.16.099.313.138.475.015.062.101.612.047.153.021.18.032.362.037.543.005.187-.011.374-.011.561,0,.419.074-.223-.022.231-.075.356-.16.706-.287,1.048-.049.129-.046.126.008-.012-.043.093-.089.184-.138.274-.115.214-.244.417-.381.617-.61.892-.168,2.218.718,2.736.99.579,2.125.177,2.736-.718,1.225-1.792,1.606-4.044,1.22-6.161-.395-2.164-1.852-3.752-3.975-4.353-2.214-.626-4.439.104-6.597.593-2.185.495-4.367.955-6.496,1.668-1.024.343-1.694,1.378-1.397,2.46.275,1,1.432,1.742,2.46,1.397h0Z"/><path class="l" d="M64.045,144.056c2.239-.954,3.9-2.446,4.594-4.839.189-.651.288-1.324.372-1.995.033-.267.063-.534.087-.802.026-.24.024-.225-.008.047.019-.103.043-.204.072-.304.157-.354-.166.164.088-.175.176-.234.212-.346.369-.508.282-.291.825-.598,1.289-.857,1.026-.572,2.115-1.047,2.917-1.939s1.363-1.98,1.548-3.168c.378-2.426-.576-4.924-2.754-6.186-2.232-1.293-4.248,2.162-2.019,3.454.108.059.212.123.313.193-.14-.11-.157-.119-.052-.027.071.068.428.532.214.211.101.151.191.309.27.472-.17-.355.04.157.054.209.032.116.094.555.061.199.021.22.018.438.01.658-.012.146-.005.126.019-.06-.021.126-.048.251-.081.374-.019.073-.208.577-.062.249-.326.732-.677.964-1.505,1.398-.981.514-1.959,1.035-2.8,1.766-.785.682-1.449,1.663-1.736,2.671-.272.954-.209,1.754-.406,2.599-.052.225-.111.449-.182.669-.012.039-.25.59-.103.29-.097.198-.207.388-.331.571-.081.116-.068.101.038-.044-.078.091-.16.179-.246.263-.057.056-.459.381-.16.159-.156.116-.325.219-.492.318-.447.263-.921.475-1.397.678-.994.423-1.214,1.888-.718,2.736.602,1.028,1.738,1.143,2.736.718h0Z"/></g><path class="l" d="M49.764,157.228c-.416-1.768-.912-3.516-1.415-5.261-.041-.141-.168-.939-.292-1.004-.794.82-.938,1.116-.434.89.123-.046.247-.091.371-.136.575-.21,1.151-.414,1.728-.616,3.024-1.061,6.068-2.069,9.118-3.053,2.876-.927,5.758-1.848,8.67-2.656.47-.131,1.025-.197,1.472-.389.099-.024.198-.048.297-.071-.835-.786-1.152-.912-.953-.376-.034.254.197.73.262.98.35,1.337.675,2.679,1.023,4.016.648,2.489,4.507,1.434,3.857-1.063-.324-1.243-.627-2.492-.95-3.736-.411-1.585-.803-3.243-2.619-3.707-1.116-.285-2.374.19-3.453.49-1.247.346-2.486.719-3.724,1.098-5.445,1.667-10.929,3.362-16.25,5.396-2.249.859-2.69,2.552-2.061,4.722.532,1.837,1.058,3.68,1.496,5.542.589,2.505,4.447,1.444,3.857-1.063h0Z"/><path class="l" d="M249.742,154.55c.265-1.637.6-3.263.942-4.886s.866-3.276-.503-4.592c-.891-.857-2.392-1.069-3.553-1.387-1.258-.345-2.518-.679-3.781-1.007-5.292-1.377-10.629-2.835-16.022-3.768-2.028-.351-3.733.259-4.266,2.414-.396,1.603-.565,3.26-.95,4.867-.6,2.502,3.256,3.57,3.857,1.063.426-1.778.464-3.799,1.138-5.497l-.514.883c-.759.008-.947.037-.565.086.106.018.211.036.317.054.174.041.355.064.531.098.453.086.905.178,1.356.273,1.178.247,2.353.512,3.526.784,2.702.626,5.397,1.288,8.085,1.971,2.383.605,4.764,1.222,7.132,1.887.234.066.475.159.715.203.094.027.189.054.283.082.51.196.401-.124-.326-.962-.218.127-.299,1.393-.352,1.643-.33,1.57-.652,3.143-.909,4.727-.172,1.065.276,2.152,1.397,2.46.954.262,2.287-.324,2.46-1.397h0Z"/><path class="m" d="M13.773,16.451c-.195-.049-.195-.312,0-.361,1.76-.444,3.459-1.132,5.251-2.024,2.477-1.234,4.624-3.351,5.971-6.144.881-1.826,1.413-3.758,1.738-5.78.034-.212.334-.212.368,0,.325,2.022.857,3.954,1.738,5.78,1.347,2.793,3.494,4.91,5.971,6.144,1.793.893,3.491,1.58,5.251,2.024.195.049.195.312,0,.361-1.76.444-3.459,1.132-5.251,2.024-2.477,1.234-4.624,3.351-5.971,6.144-.881,1.826-1.413,3.758-1.738,5.78-.034.212-.334.212-.368,0-.325-2.022-.857-3.954-1.738-5.78-1.347-2.793-3.494-4.91-5.971-6.144-1.793-.893-3.491-1.58-5.251-2.024Z"/><path class="m" d="M270.332,93.883c-.268-.068-.268-.43,0-.498,2.425-.612,4.764-1.559,7.233-2.789,3.412-1.699,6.369-4.616,8.224-8.463,1.213-2.515,1.947-5.177,2.394-7.962.047-.292.46-.292.507,0,.447,2.785,1.181,5.447,2.394,7.962,1.855,3.847,4.813,6.763,8.224,8.463,2.469,1.23,4.809,2.176,7.233,2.789.268.068.268.43,0,.498-2.425.612-4.764,1.559-7.233,2.789-3.412,1.699-6.369,4.616-8.224,8.463-1.213,2.515-1.947,5.177-2.394,7.962-.047.292-.46.292-.507,0-.447-2.785-1.181-5.447-2.394-7.962-1.855-3.847-4.813-6.763-8.224-8.463-2.469-1.23-4.809-2.176-7.233-2.789Z"/><path class="l" d="M15.187,15.036l-.146-.181v2.828l.146-.181-.883.514c3.506-.925,7.137-2.498,9.674-5.162,1.205-1.265,2.2-2.731,2.926-4.318.43-.94.804-1.91,1.096-2.901.122-.414.23-.832.328-1.253.065-.279.095-1.184.234-1.374l-1.727.991h.162l-1.727-.991c.139.19.169,1.095.234,1.374.097.421.206.839.328,1.253.293.992.666,1.961,1.096,2.901.725,1.586,1.719,3.058,2.926,4.318,2.548,2.66,6.162,4.236,9.674,5.162l-.883-.514.146.181v-2.828l-.146.181.883-.514c-3.506.925-7.137,2.498-9.674,5.162-1.205,1.265-2.2,2.731-2.926,4.318-.43.94-.804,1.91-1.096,2.901-.122.414-.23.832-.328,1.253-.065.279-.095,1.184-.234,1.374l1.727-.991h-.162l1.727.991c-.139-.19-.169-1.095-.234-1.374-.097-.421-.206-.839-.328-1.253-.293-.992-.666-1.961-1.096-2.901-.725-1.586-1.719-3.058-2.926-4.318-2.548-2.66-6.162-4.236-9.674-5.162-2.491-.657-3.554,3.2-1.063,3.857,3.326.877,6.728,2.356,8.818,5.205,1.096,1.494,1.79,3.224,2.257,5.006.437,1.669.653,4.583,3.214,3.878,1.888-.52,1.801-3.389,2.286-4.913.551-1.733,1.384-3.407,2.609-4.765,1.089-1.207,2.349-2.083,3.806-2.791.895-.435,1.806-.823,2.75-1.142.901-.305,2.012-.396,2.641-1.173.736-.911.742-1.91,0-2.828-.628-.777-1.74-.868-2.641-1.173-.943-.319-1.855-.707-2.75-1.142-1.567-.762-2.933-1.735-4.057-3.078-1.186-1.416-1.964-3.129-2.484-4.89-.485-1.644-.395-4.573-2.773-4.573-2.39,0-2.287,2.918-2.773,4.573-.517,1.76-1.298,3.475-2.484,4.89-1.124,1.342-2.491,2.318-4.057,3.078-.895.434-1.807.823-2.75,1.142-.901.306-2.01.394-2.641,1.173-.736.911-.742,1.91,0,2.828l.146.181c.68.841,2.121.707,2.828,0,.831-.831.681-1.986,0-2.828Z"/><path class="l" d="M256.977,34.797l-.105-.13v2.828l.105-.13-.883.514c2.621-.696,5.32-1.877,7.215-3.871,1.97-2.072,3.024-4.768,3.497-7.552l-.514.883.132-.114h-2.828l.132.114-.514-.883c.473,2.785,1.526,5.48,3.497,7.552,1.895,1.993,4.595,3.174,7.215,3.871l-.883-.514.105.13v-2.828l-.105.13.883-.514c-2.621.696-5.32,1.877-7.215,3.871-1.97,2.072-3.024,4.768-3.497,7.552l.514-.883-.132.114h2.828l-.132-.114.514.883c-.473-2.785-1.526-5.48-3.497-7.552-1.895-1.993-4.595-3.174-7.215-3.871-2.49-.662-3.553,3.196-1.063,3.857,2.138.568,4.309,1.464,5.767,3.19.642.76,1.127,1.685,1.455,2.621.402,1.148.392,2.994,1.343,3.814.865.746,1.958.751,2.828,0,.948-.817.938-2.662,1.343-3.814.384-1.093.972-2.128,1.772-2.97.774-.814,1.664-1.364,2.677-1.842.569-.268,1.148-.503,1.746-.7.712-.235,1.515-.325,2.015-.944.736-.911.742-1.91,0-2.828-.496-.613-1.306-.711-2.015-.944-.536-.176-1.06-.383-1.572-.619-1.077-.495-2.03-1.061-2.85-1.924-.76-.799-1.324-1.77-1.71-2.8-.232-.62-.41-1.263-.553-1.909-.172-.774-.205-1.517-.851-2.074-.865-.746-1.958-.751-2.828,0-.948.817-.938,2.662-1.343,3.814-.384,1.093-.972,2.128-1.772,2.97-.774.814-1.664,1.364-2.677,1.842-.569.268-1.148.503-1.746.7-.712.235-1.515.325-2.015.944-.736.911-.742,1.91,0,2.828l.105.13c.68.841,2.121.707,2.828,0,.831-.831.681-1.986,0-2.828Z"/><path class="l" d="M271.747,92.468l-.179-.144.586,1.414v-.209l-.586,1.414.179-.144-.883.514c4.752-1.241,9.662-3.381,13.079-7.008,1.644-1.746,2.975-3.768,3.941-5.961.511-1.159.96-2.343,1.318-3.559.186-.631.35-1.268.494-1.909.105-.465.092-1.477.307-1.859l-1.195.919.161-.055h-1.063l.161.055-1.195-.919c.192.34.164,1.202.26,1.644.14.643.298,1.282.48,1.915.35,1.218.79,2.404,1.293,3.567.983,2.27,2.328,4.359,4.027,6.163,3.417,3.627,8.327,5.768,13.079,7.008l-.883-.514.179.144-.586-1.414v.209l.586-1.414-.179.144.883-.514c-4.752,1.241-9.662,3.381-13.079,7.008-1.644,1.746-2.975,3.768-3.941,5.961-.511,1.159-.96,2.343-1.318,3.559-.186.631-.35,1.268-.494,1.909-.105.465-.092,1.477-.307,1.859l1.195-.919-.161.055h1.063l-.161-.055,1.195.919c-.192-.34-.164-1.202-.26-1.644-.14-.643-.298-1.282-.48-1.915-.35-1.218-.79-2.404-1.293-3.567-.983-2.27-2.328-4.359-4.027-6.163-3.417-3.627-8.327-5.768-13.079-7.008-2.493-.651-3.556,3.206-1.063,3.857,3.91,1.021,8.005,2.669,10.911,5.563s4.453,6.752,5.266,10.726c.2.978.216,2.077,1.087,2.729.866.647,2.159.633,2.948-.156.726-.726.729-1.843.929-2.789.241-1.143.542-2.274.916-3.381,1.231-3.636,3.449-6.957,6.691-9.087,1.773-1.165,3.777-2.043,5.769-2.759,1.738-.625,5.068-.982,4.332-3.661-.34-1.239-1.57-1.518-2.64-1.833s-2.136-.692-3.169-1.125c-1.829-.765-3.688-1.64-5.255-2.872-3.165-2.489-5.11-6.035-6.175-9.866-.486-1.748-.363-5.037-2.707-5.312-2.632-.309-2.619,2.912-3.069,4.678-1.096,4.304-3.264,8.405-6.999,10.975-1.91,1.314-4.11,2.278-6.29,3.044-1.075.377-2.566.515-3.428,1.285-.971.867-1.063,2.47,0,3.326.84.677,2.007.821,2.828,0,.701-.701.845-2.147,0-2.828Z"/><path class="l" d="M3.488,125.547l-.105-.13v2.828l.105-.13-.883.514c2.621-.696,5.32-1.877,7.215-3.871,1.97-2.072,3.024-4.768,3.497-7.552l-.514.883.132-.114h-2.828l.132.114-.514-.883c.473,2.785,1.526,5.48,3.497,7.552,1.895,1.993,4.595,3.174,7.215,3.871l-.883-.514.105.13v-2.828l-.105.13.883-.514c-2.621.696-5.32,1.877-7.215,3.871-1.97,2.072-3.024,4.768-3.497,7.552l.514-.883-.132.114h2.828l-.132-.114.514.883c-.473-2.785-1.526-5.48-3.497-7.552-1.895-1.993-4.595-3.174-7.215-3.871-2.49-.662-3.553,3.196-1.063,3.857,2.138.568,4.309,1.464,5.767,3.19.642.76,1.127,1.685,1.455,2.621.402,1.148.392,2.994,1.343,3.814.865.746,1.958.751,2.828,0,.948-.817.938-2.662,1.343-3.814.384-1.093.972-2.128,1.772-2.97.774-.814,1.664-1.364,2.677-1.842.569-.268,1.148-.503,1.746-.7.712-.235,1.515-.325,2.015-.944.736-.911.742-1.91,0-2.828-.496-.613-1.306-.711-2.015-.944-.536-.176-1.06-.383-1.572-.619-1.077-.495-2.03-1.061-2.85-1.924-.76-.799-1.324-1.77-1.71-2.8-.232-.62-.41-1.263-.553-1.909-.172-.774-.205-1.517-.851-2.074-.865-.746-1.958-.751-2.828,0-.948.817-.938,2.662-1.343,3.814-.384,1.093-.972,2.128-1.772,2.97-.774.814-1.664,1.364-2.677,1.842-.569.268-1.148.503-1.746.7-.712.235-1.515.325-2.015.944-.736.911-.742,1.91,0,2.828l.105.13c.68.841,2.121.707,2.828,0,.831-.831.681-1.986,0-2.828Z"/><g id="h"><path class="l" d="M149.248,214.449c.3,1.148.589,2.314.761,3.489l-.071-.532c.02.161.029.32.013.482l.071-.532c-.011.075-.028.145-.053.217l.202-.478c-.022.051-.046.093-.076.139l.313-.405c-.036.044-.07.077-.114.112l.405-.313c-.088.057-.181.102-.276.146l.478-.202c-.152.063-.303.11-.466.136l.532-.071c-.147.017-.29.016-.437-.001l.532.071c-.165-.023-.327-.063-.491-.086-.266-.083-.532-.095-.798-.036-.266.012-.514.091-.744.237-.415.243-.811.718-.919,1.195-.117.512-.091,1.087.202,1.541.26.404.695.851,1.195.919.394.053.776.153,1.177.171.624.028,1.202-.165,1.758-.421.693-.318,1.234-.952,1.419-1.698.157-.633.09-1.171-.016-1.805-.189-1.124-.448-2.238-.737-3.34-.126-.483-.491-.944-.919-1.195s-1.061-.357-1.541-.202c-1.042.337-1.681,1.376-1.397,2.46h0Z"/><path class="l" d="M131.22,204.599c-.57,1.85-.201,6.108,3.305,6.472,4.634-.025,4.883-5.172,3.325-7.593-1.276-1.982-5.031-2.808-6.629,1.121Z"/><path class="l" d="M168.177,204.618c.569,1.851.195,6.108-3.311,6.469-4.634-.03-4.878-5.178-3.317-7.597,1.278-1.981,5.034-2.803,6.628,1.128Z"/><path class="l" d="M146.145,230.197c.954-.181,1.908-.361,2.867-.513.871-.138,1.465-.215,2.468-.283.921-.063,1.846-.076,2.768-.009.22.016.44.036.659.06-.297-.033.287.044.343.054.218.038.436.08.653.13.124.027.248.057.37.091-.225-.114-.248-.109-.068.014l-.718-.718c-.101-.191-.135-.384-.101-.581.019-.135.009-.095-.029.121-.046.19-.091.378-.15.565-.013.042-.177.509-.101.31.076-.197-.12.254-.14.295-.177.351-.381.687-.604,1.01-.025.036-.32.423-.196.271.087-.107-.234.266-.286.324-1.104,1.226-2.006,1.845-3.281,2.745-.853.602-1.337,1.775-.718,2.736.546.847,1.822,1.363,2.736.718,1.782-1.258,3.515-2.554,4.847-4.301.666-.874,1.178-1.818,1.538-2.86.428-1.238.644-2.758-.375-3.777-.883-.883-2.333-.978-3.503-1.121-1.1-.135-2.207-.158-3.313-.098-2.265.124-4.508.538-6.732.96-1.03.196-1.711,1.49-1.397,2.46.356,1.1,1.357,1.606,2.46,1.397h0Z"/></g></g></g></svg>