<svg id="b" xmlns="http://www.w3.org/2000/svg" width="263.97" height="314.425" viewBox="0 0 263.97 314.425" style="color: initial !important;"><defs><style>.e{fill:#ffda71;}.e,.f,.g,.h{stroke-width:0px;}.f{fill:#ffffff;}.g{fill:#211715;}.h{fill:#645d5c;}</style></defs><g id="c"><g id="d"><path class="f" d="m132.03,252.884c-22.926-3.422-46.321-3.01-56.63-1.817-1.323,3.47-14.589,47.207-17.381,59.082-.226.96.824,1.772,1.952,1.523,20.242-4.463,55.895-4.147,69.481.009.835.255,1.709.367,2.578.333.869.033,1.742-.078,2.577-.333,13.586-4.156,49.239-4.472,69.481-.009,1.128.249,2.201-.569,1.952-1.523-3.084-11.8-16.714-55.612-18.037-59.082-10.308-1.193-33.048-1.605-55.974,1.817Z"/><path class="f" d="m241.079,281.882l-.73-.964c.02-.35-.057-.711-.25-1.041-1.531-2.614-3.777-5.973-5.106-7.95-.598-.889-1.733-1.232-2.723-.823-2.307.954-6.38,2.657-9.325,4.183-.933.483-1.274,1.638-.769,2.56,1.608,2.937,3.18,5.892,4.718,8.864.175.339.441.601.751.774l.234.495c1.166,1.941,2.726,3.529,5.002,4.049,1.715.392,3.541.17,5.179-.472,1.319-.516,2.599-1.723,3.289-3.249,1.034-2.289.57-4.791-.271-6.426Z"/><path class="h" d="m66.541,143.237c3.356-2.467,5.701-5.556,7.608-9.202,1.438-2.75,1.866-5.88,2.196-8.948,1.667-15.512,2.429-37.145,1.759-54.296-.837-25.451,5.793-43.908,16.245-54.013,6.3-6.091,20.497-14.389,36.448-14.389,8.106,0,14.213,1.24,19.828,3.211,11.943,6.615,11.847,6.273,17.118,11.408,7.975,7.77,13.887,18.804,15.065,34.638.201,2.697.245,9.004.317,17.683-.67,17.826-.293,41.772,1.374,57.894.33,3.188.758,6.442,2.196,9.299,1.906,3.789,5.374,6.485,8.731,9.05l-128.884-2.335Z"/><path class="f" d="m107.446,59.439h18.012c4.633-1.66,8.475-5.328,10.856-9.635,1.737-3.141,2.77-5.703,3.61-9.592h8.339c1.333,5.323,2.968,10.422,4.451,13.252,3.011,5.745,8.277,13.682,13.719,15.832l4.047-1.67c1.285-1.236,3.011-1.695,4.486-1.637,3.211.127,4.57,1.884,5.154,2.915,1.743,3.077,1.647,8.735.456,12.231-.844,2.476-2.225,6.263-5.531,8.97-1.505,1.232-3.79,1.995-5.87,1.372-1.487,5.068-4.155,11.141-8.801,16.795-3.474,4.227-6.793,6.955-10.701,8.937.035,1.963-.027,2.646.151,5.083.079,1.084.163,2.254.564,3.312.538,1.39,1.263,2.594,2.428,3.534,2.467,1.987,5.002,2.937,8.125,4.111l3.253,1.28c-8.238,5.621-21.839,8.78-33.377,9.04-11.374-.259-24.811-3.334-33.063-8.821l3.808-1.499c3.123-1.175,5.658-2.124,8.125-4.111,1.165-.94,1.889-2.144,2.428-3.534.401-1.057.485-2.228.564-3.312.147-2.02.131-2.835.14-4.172-4.287-2.083-8.132-5.399-11.788-9.848-4.724-5.749-7.403-11.932-8.876-17.053-2.038.521-4.237-.251-5.693-1.462-3.285-2.733-4.637-6.531-5.462-9.013-1.165-3.505-1.217-9.164.55-12.227.592-1.026,1.965-2.773,5.177-2.875,1.476-.047,3.198.426,4.473,1.672,0,0,3.014,0,5.576.005.831-2.567,2.174-5.88,3.502-7.881h7.167Z"/><path class="g" d="m89.065,88.786c1.762,7.972,5.43,15.439,10.687,21.686,5.143,6.112,11.81,11.011,19.854,12.251,1.279.197,2.581-.325,2.952-1.676.312-1.137-.388-2.754-1.676-2.952-7.33-1.13-13.051-5.449-17.736-11.017-4.725-5.615-7.874-12.425-9.453-19.568-.666-3.015-5.295-1.739-4.629,1.276h0Z"/><path class="g" d="m167.713,87.51c-1.465,6.628-4.276,12.972-8.455,18.345-2.097,2.696-4.528,5.272-7.344,7.227-2.597,1.803-5.442,3.083-8.438,4.062-2.924.955-1.672,5.592,1.276,4.629,3.369-1.101,6.663-2.518,9.584-4.546,3.181-2.208,5.918-4.946,8.315-7.977,4.732-5.982,8.043-13.016,9.689-20.463.665-3.01-3.961-4.296-4.629-1.276h0Z"/><path class="g" d="m172.178,69.324c1.012-.904,2.428-1.124,3.725-.803.516.128.993.327,1.415.66-.205-.161.284.298.279.293.484.519-.192-.336.167.187,1.428,2.075,1.421,5.027,1.212,7.435-.212,2.448-1.082,4.91-2.231,7.074-1.158,2.182-3.429,5.527-6.334,5.135-1.283-.173-2.576.308-2.952,1.676-.307,1.118.383,2.778,1.676,2.952,7.486,1.01,11.815-6.107,13.804-12.307,1.628-5.074,1.726-13.062-3.092-16.509-3.346-2.395-8.075-1.857-11.064.812-2.309,2.062,1.095,5.447,3.394,3.394h0Z"/><path class="g" d="m92.898,65.619c-2.741-2.486-6.714-3.072-10.065-1.462-2.436,1.17-3.874,3.547-4.513,6.099-1.461,5.835-.039,12.511,3.24,17.51,2.237,3.41,5.807,6.5,10.162,5.948,1.286-.163,2.4-.986,2.4-2.4,0-1.17-1.105-2.564-2.4-2.4-3.217.408-5.358-2.238-6.758-4.811-1.192-2.19-2.099-4.729-2.316-7.221s-.179-5.358,1.209-7.527c.093-.133.069-.107-.073.077.07-.088.144-.172.221-.254.062-.061.544-.511.362-.371.427-.327.903-.522,1.422-.644,1.312-.31,2.705-.065,3.714.85,2.283,2.071,5.688-1.313,3.394-3.394h0Z"/><path class="g" d="m110.418,118.35c-.005,1.026-.02,2.051-.081,3.075-.039.658-.078,1.319-.15,1.974-.033.296-.042.35-.14.757-.043.184-.094.365-.152.544-.115.294-.131.353-.05.176-.219.547-.522,1.07-.851,1.557-.166.235-.194.273-.083.113-.11.129-.224.254-.343.374-.183.184-.375.358-.577.522.123-.088.067-.046-.169.127-.145.106-.291.209-.439.311-.29.199-.587.389-.889.57-.52.312-1.054.598-1.599.864-2.45,1.196-5.473,2.214-8.247,3.305-1.205.474-2.046,1.607-1.676,2.952.316,1.148,1.739,2.154,2.952,1.676,3.357-1.321,6.902-2.449,10.087-4.142,1.334-.709,2.665-1.576,3.768-2.613,1.177-1.107,1.966-2.521,2.555-4.007.985-2.487.872-5.491.886-8.137.007-1.297-1.108-2.4-2.4-2.4-1.307,0-2.393,1.098-2.4,2.4h0Z"/><path class="g" d="m147.286,118.35c.014,2.646-.099,5.65.886,8.137.589,1.486,1.377,2.9,2.555,4.007,1.103,1.037,2.434,1.904,3.768,2.613,3.185,1.693,6.73,2.821,10.087,4.142,1.206.475,2.635-.521,2.952-1.676.374-1.362-.465-2.476-1.676-2.952-2.766-1.089-5.808-2.115-8.247-3.305-.545-.266-1.08-.552-1.599-.864-.302-.181-.598-.371-.889-.57-.148-.101-.295-.205-.439-.311-.236-.173-.293-.215-.169-.127-.202-.163-.395-.337-.577-.522-.119-.12-.233-.245-.343-.374.11.16.083.123-.083-.113-.328-.485-.635-1.01-.851-1.557.081.177.065.118-.05-.176-.058-.179-.109-.361-.152-.544-.098-.407-.107-.461-.14-.757-.073-.655-.111-1.316-.15-1.974-.061-1.025-.075-2.049-.081-3.075-.007-1.297-1.098-2.4-2.4-2.4s-2.407,1.098-2.4,2.4h0Z"/><path class="g" d="m196.636,143.499c-2.009-1.536-4.01-3.119-5.701-5.011-1.729-1.935-2.774-4.185-3.348-6.704-1.026-4.506-1.161-9.309-1.463-13.909-.677-10.322-.92-20.676-.914-31.019.003-5.096.074-10.192.236-15.285.158-4.974.036-9.968-.06-14.944-.172-8.918-1.573-17.688-5.201-25.892-1.937-4.381-4.528-8.432-7.625-12.083-3.184-3.753-6.867-7.218-11.097-9.755-2.656-1.593-5.072,2.556-2.423,4.145,3.668,2.2,6.791,5.194,9.605,8.401,2.635,3.002,4.823,6.377,6.579,9.962,3.776,7.711,5.175,16.252,5.352,24.768.104,4.998.245,10.023.082,15.019s-.239,10.023-.247,15.035c-.018,10.36.216,20.731.876,31.071.345,5.405.474,11.134,1.826,16.396,1.605,6.247,6.18,10.186,11.1,13.947,1.03.788,2.686.16,3.284-.861.723-1.235.172-2.494-.861-3.284h0Z"/><path class="g" d="m67.752,145.309c2.819-2.111,5.167-4.623,7.055-7.603,2.016-3.181,3.139-6.504,3.646-10.225.916-6.728,1.321-13.552,1.678-20.329.38-7.207.585-14.425.611-21.642.025-7.076-.419-14.156-.29-21.228.218-12.001,2.141-24.472,7.805-35.197,2.191-4.149,4.742-7.763,8.145-10.951,3.847-3.604,8.574-6.401,13.411-8.605,12.359-5.631,26.545-6.2,39.398-1.881,1.384.465,2.748.983,4.099,1.533,1.201.489,2.638-.531,2.952-1.676.377-1.374-.471-2.462-1.676-2.952-12.815-5.214-27.334-6.138-40.541-1.791-10.587,3.484-20.461,9.607-26.879,18.858-6.692,9.646-9.71,21.476-10.93,33.009-.755,7.138-.533,14.233-.377,21.39.159,7.293.092,14.592-.14,21.882-.223,7.026-.598,14.049-1.191,21.054-.278,3.282-.462,6.642-1.136,9.871-.697,3.337-2.377,6.418-4.582,9.01-1.038,1.221-2.198,2.366-3.483,3.328-1.036.776-1.568,2.075-.861,3.284.597,1.021,2.24,1.642,3.284.861h0Z"/><path class="g" d="m145.949,40.85c1.596,6.326,3.587,12.36,7.034,17.929,3.15,5.089,7.115,10.476,12.813,12.832,1.198.495,2.639-.536,2.952-1.676.379-1.379-.473-2.455-1.676-2.952-2.122-.877-3.945-2.752-5.459-4.459-1.858-2.096-3.439-4.424-4.883-6.819-3.034-5.029-4.72-10.456-6.152-16.13-.755-2.993-5.386-1.725-4.629,1.276h0Z"/><path class="g" d="m137.88,38.256c-1.482,7.599-5.19,15.968-13.06,18.87-1.216.448-2.041,1.627-1.676,2.952.322,1.17,1.73,2.127,2.952,1.676,9.472-3.493,14.569-12.767,16.413-22.222.248-1.271-.36-2.59-1.676-2.952-1.177-.323-2.703.398-2.952,1.676h0Z"/><path class="g" d="m121.631,38.654c-.349,7.575-3.89,14.584-9.726,19.408-1,.826-.855,2.539,0,3.394.989.989,2.392.828,3.394,0,6.802-5.622,10.728-14.035,11.132-22.803.06-1.296-1.146-2.4-2.4-2.4-1.35,0-2.34,1.1-2.4,2.4h0Z"/><path class="g" d="m97.286,76.515c.824-5.911,2.272-11.931,5.776-16.868,4.124-5.811,7.341-12.765,6.135-20.034-.212-1.28-1.796-1.994-2.952-1.676-1.358.373-1.889,1.669-1.676,2.952,1.082,6.521-3.058,12.29-6.414,17.417-3.244,4.956-4.691,11.153-5.497,16.933-.179,1.282.312,2.577,1.676,2.952,1.122.308,2.772-.384,2.952-1.676h0Z"/><path class="g" d="m123.26,104.434c2.482,1.322,5.159,1.884,7.971,1.866,2.909-.019,5.801-.62,8.118-2.441.992-.78.877-2.589,0-3.394-1.052-.966-2.336-.832-3.394,0,.743-.584.248-.192.056-.068-.156.101-.317.194-.481.281-.203.107-.791.285-.086.066-.224.069-.44.171-.664.243-.607.197-1.228.323-1.857.427.35-.058.17-.022-.076.003-.182.018-.365.034-.547.045-.439.029-.88.04-1.32.037-.394-.002-.788-.016-1.182-.043-.181-.012-.361-.027-.541-.045-.098-.01-.755-.134-.161-.016-.584-.116-1.163-.216-1.735-.388-.243-.073-.48-.161-.72-.244-.577-.2.442.219-.079-.03-.297-.142-.591-.289-.882-.444-1.108-.59-2.662-.316-3.284.861-.588,1.113-.322,2.653.861,3.284h0Z"/><path class="g" d="m129.838,85.732c.339,1.305.665,2.63.859,3.965l-.086-.638c.023.183.033.363.015.547l.086-.638c-.013.085-.031.165-.06.246l.242-.573c-.025.057-.051.106-.086.158l.375-.486c-.04.049-.079.088-.128.128l.486-.375c-.099.064-.204.116-.311.166l.573-.242c-.171.072-.341.125-.525.154l.638-.086c-.166.02-.327.018-.493,0l.638.086c-.186-.026-.368-.072-.554-.097-.319-.1-.638-.114-.957-.043-.319.014-.617.109-.892.285-.498.291-.973.862-1.103,1.434-.14.614-.11,1.304.242,1.849.312.485.834,1.021,1.434,1.103.457.062.9.178,1.365.198.73.032,1.405-.195,2.055-.497.812-.376,1.451-1.13,1.666-2.005.183-.748.107-1.37-.019-2.119-.214-1.277-.507-2.543-.832-3.796-.151-.579-.589-1.134-1.103-1.434s-1.273-.429-1.849-.242c-1.252.405-2.015,1.65-1.676,2.952h0Z"/><path class="g" d="m109.425,74.405c-.656,2.152-.229,7.102,3.813,7.523,5.341-.032,5.625-6.017,3.827-8.831-1.472-2.304-5.801-3.262-7.64,1.308Z"/><path class="g" d="m152.197,74.405c.657,2.152.229,7.102-3.812,7.523-5.341-.032-5.626-6.017-3.828-8.831,1.472-2.304,5.801-3.262,7.64,1.308Z"/><path class="g" d="m132.668,250.57c-16.048-2.376-32.411-3.279-48.623-2.548-2.887.13-5.773.317-8.645.645-1.157.132-1.902.672-2.314,1.762-2.004,5.304-3.458,10.87-5.103,16.291-2.781,9.167-5.513,18.349-8.148,27.559-1.08,3.775-2.148,7.554-3.15,11.351-.364,1.381-.813,2.787-1.023,4.201-.291,1.966,1.027,3.725,2.944,4.175,1.441.338,3.042-.252,4.463-.523,11.435-2.186,23.249-2.705,34.869-2.634,5.723.035,11.452.259,17.152.792,4.327.404,8.455.902,12.747,2.074,1.536.419,3.017.762,4.629.706,1.416-.049,2.713-.431,4.066-.788,1.957-.517,3.951-.892,5.95-1.206,2.248-.353,4.531-.61,6.961-.829,2.762-.249,5.531-.424,8.302-.544,11.969-.52,24.06-.196,35.954,1.285,2.591.323,5.175.728,7.737,1.231,1.545.303,3.106.838,4.641.226,1.833-.731,2.655-2.528,2.245-4.412-.677-3.11-1.717-6.182-2.612-9.234-2.635-8.991-5.376-17.95-8.144-26.901-2.167-7.008-4.316-14.026-6.62-20.99-.202-.611-.4-1.225-.627-1.827-.417-1.103-1.167-1.631-2.314-1.762-13.658-1.56-27.72-1.061-41.382.115-5.094.439-10.172,1.039-15.23,1.787-1.283.19-1.99,1.812-1.676,2.952.378,1.375,1.665,1.867,2.952,1.676,15.43-2.285,31.208-3.091,46.792-2.376,2.853.131,5.705.32,8.543.645l-2.314-1.762c1.941,5.131,3.407,10.483,5.041,15.716,2.758,8.83,5.476,17.674,8.133,26.535,1.153,3.844,2.296,7.691,3.4,11.549.405,1.414.805,2.83,1.188,4.251.061.224.086.573.206.77l.035.132c-.08-.718.176-1.164.768-1.341.002-.037-.559-.136-.587-.142-1.29-.27-2.585-.511-3.884-.73-11.397-1.921-23.05-2.497-34.595-2.391-5.585.051-11.175.284-16.736.815-4.455.426-8.962.973-13.301,2.106-1.042.272-2.023.626-3.111.642-1.261.019-2.345-.328-3.546-.642-1.968-.514-3.972-.887-5.98-1.199-5.032-.782-10.114-1.216-15.198-1.468-11.749-.581-23.609-.308-35.301,1.008-2.726.307-5.447.672-8.152,1.128-1.203.203-2.402.424-3.597.67-.07.014-.85.136-.858.181l-.016.021c.598.172.853.618.765,1.339.133-.148.151-.629.202-.837.795-3.231,1.688-6.438,2.586-9.642,4.381-15.63,8.931-31.256,13.957-46.692.194-.596.383-1.195.604-1.781l-2.314,1.762c5.662-.647,11.386-.817,17.08-.857,8.052-.056,16.109.249,24.134.91,4.942.407,9.872.952,14.777,1.679,1.281.19,2.579-.319,2.952-1.676.311-1.131-.386-2.761-1.676-2.952Z"/><path class="g" d="m129.369,259.958c-.001,11.991-.044,23.981-.066,35.972-.004,2.051-.009,4.102-.009,6.153,0,3.089,4.8,3.094,4.8,0,.001-11.857.045-23.714.066-35.572.004-2.184.009-4.369.009-6.553,0-3.089-4.8-3.094-4.8,0h0Z"/><path class="e" d="m96.799,238.344c-8.912,3.793-28.148,11.978-28.148,11.978l-17.187-3.18c-.307-.045-.586-.104-.944-.231-.057-.02-.117-.043-.179-.067-7.184-2.807-10.494-7.625-10.056-17.742.361-8.334,2.91-20.331,4.205-25.564,3.269-13.202,5.388-20.263,8.167-29.75,1.179-4.025,4.491-12.02,6.827-16.188,4.216-7.521,8.722-10.938,15.556-14.389,3.169-1.601,11.138-4.801,22.392-8.679,8.221,5.624,21.862,8.777,33.385,9.039,11.658-.262,25.422-3.485,33.632-9.216,8.932,3.187,19.795,8.485,25.021,11.602,6.57,3.93,10.546,7.867,14.626,13.587.201.282.407.587.616.913,2.364,3.689,5.149,10.043,6.884,15.199,3.292,9.779,5.448,18.634,8.5,30.944,1.725,6.958,2.927,12.258,3.287,20.588.44,10.12-4.875,17.72-13.095,20.06l-14.97,3.074-28.778-13.919c-20.283.018-45.308.036-65.306.053l-4.436,1.888Z"/><path class="g" d="m210.926,249.562c9.26-2.723,14.677-11.244,14.876-20.67.232-11.013-3.112-21.964-5.783-32.529-2.62-10.366-5.34-20.837-9.794-30.592-4.208-9.215-10.829-16.684-19.544-21.885-8.783-5.242-18.321-9.009-27.819-12.711-1.208-.471-2.634.518-2.952,1.676-.373,1.359.464,2.48,1.676,2.952,8.132,3.169,16.153,6.447,23.837,10.621,7.8,4.237,14.542,9.997,18.767,17.922,4.635,8.693,7.293,18.356,9.794,27.835,1.407,5.334,2.726,10.692,4.042,16.049,1.138,4.629,2.158,9.282,2.618,14.034.486,5.027.792,10.244-1.587,14.876-1.966,3.828-5.278,6.58-9.407,7.794-2.957.87-1.699,5.503,1.276,4.629h0Z"/><path class="g" d="m52.103,244.828c-1.707-.302-3.827-1.511-4.987-2.418-1.496-1.171-2.353-2.278-3.148-3.962-1.742-3.692-1.43-8.718-1.024-12.899.988-10.184,3.481-20.189,6.075-30.061,1.255-4.775,2.587-9.528,3.965-14.268,1.286-4.421,2.536-8.822,4.256-13.099,1.809-4.501,3.818-9.032,6.639-13.002,2.709-3.812,6.349-6.593,10.423-8.814,8.26-4.503,17.58-7.151,26.593-10.487,1.215-.45,2.041-1.626,1.676-2.952-.321-1.169-1.731-2.128-2.952-1.676-8.52,3.153-17.343,5.794-25.516,9.813-4.395,2.162-8.615,4.863-11.888,8.551-3.542,3.991-5.948,8.729-8.055,13.589-4.009,9.247-6.561,19.06-9.162,28.778-2.798,10.455-5.383,20.981-6.651,31.748-.663,5.634-1.047,11.66,1.363,16.955.91,1.998,2.308,3.797,4.012,5.179,1.976,1.603,4.572,3.205,7.105,3.652,1.275.225,2.586-.344,2.952-1.676.319-1.159-.393-2.725-1.676-2.952h0Z"/><path class="g" d="m2.318,238.967c12.682,0,25.365-.052,38.047-.052,3.089,0,3.094-4.8,0-4.8-12.682,0-25.365.052-38.047.052-3.089,0-3.094,4.8,0,4.8h0Z"/><path class="g" d="m224.15,238.967c9.794,0,19.587-.033,29.381-.046,2.707-.003,5.414-.006,8.121-.006,3.089,0,3.094-4.8,0-4.8-10.653,0-21.307.029-31.96.046-1.847.003-3.694.006-5.542.006-3.089,0-3.094,4.8,0,4.8h0Z"/><path class="g" d="m100.056,238.861c19.103-.021,38.205-.031,57.308-.047,4.557-.004,9.115-.008,13.672-.013,3.088-.004,3.094-4.804,0-4.8-19.043.022-38.085.031-57.128.047-4.617.004-9.234.008-13.851.013-3.088.003-3.094,4.803,0,4.8h0Z"/><path class="f" d="m81.733,230.068c6.501-.994,12.799-.923,18.324,3.705,3.26,2.731,9.368,6.994,10.255,11.764.353,1.899-.601,4.984-2.621,6.109l-4.572,13.246c1.643,1.496,1.904,2.687,1.144,3.766-1.025,1.457-2.37,2.012-4.161,1.984s-3.006-.583-4.5-1.563c.618,1.229-2.778,3.088-3.666,3.326-3.296.883-5.677-.525-8.119-2.481,1.025,2.96-3.279,6.483-6.7,4.377-3.503-2.157-6.033-3.896-8.107-7.087-2.014-3.098-2.953-6.525-4.182-8.812-1.95-3.856-5.773-6.301-5.423-8.844.521-4.713,4.985-10.753,7.559-13.554,3.321-3.615,10.109-5.224,14.77-5.937h0Z"/><path class="g" d="m79.559,215.579c-.606-1.054-.197-2.397.89-2.942.265-.133.532-.266.795-.395,1.012-.495,2.229-.143,2.828.811,5.209,8.301,27.043,46.036,31.832,54.895.253.469.073,1.053-.4,1.297h0c-.418.216-.93.095-1.205-.287-3.42-4.733-31.988-48.596-34.739-53.38Z"/><path class="g" d="m81.631,214.368c.142.298-.179.566.493.104.123-.085-.163-.347.029.038.263.527.632,1.022.938,1.525.861,1.412,1.71,2.83,2.556,4.25,2.369,3.976,4.71,7.968,7.044,11.964,5.237,8.967,10.436,17.956,15.572,26.981,1.09,1.915,2.177,3.832,3.255,5.753.432.77.863,1.54,1.29,2.313.179.324.359.648.537.973.084.153.158.32.254.465.477.72-.513-.04.079-.884l.861-.861c-.422.285-.319.264.308-.063l1.211.328c.092.04.445.651.17.295-.051-.066-.096-.137-.144-.205-.134-.188-.264-.38-.395-.57-.339-.493-.675-.989-1.01-1.486-.943-1.397-1.876-2.801-2.808-4.205-2.674-4.031-5.327-8.074-7.975-12.122-5.796-8.858-11.57-17.73-17.276-26.646-1.683-2.63-3.427-5.241-4.988-7.947-1.544-2.675-5.693-.26-4.145,2.423,3.756,6.508,8.059,12.743,12.142,19.046,5.775,8.914,11.573,17.814,17.436,26.67,1.634,2.469,3.236,4.972,4.959,7.38,1.077,1.505,2.897,2.468,4.691,1.431,1.887-1.091,1.976-3.205,1.06-4.951-.781-1.488-1.627-2.945-2.451-4.41-5.647-10.041-11.423-20.011-17.224-29.963-2.751-4.721-5.511-9.436-8.308-14.13-.961-1.613-1.925-3.224-2.907-4.824-.574-.936-1.111-1.909-2.029-2.556-1.933-1.362-4.325-.905-6.141.437-1.919,1.419-2.212,3.812-1.229,5.87.559,1.169,2.231,1.476,3.284.861,1.196-.7,1.422-2.11.861-3.284Z"/><path class="g" d="m82.371,232.382c3.341-.5,6.858-.725,10.159.135,3.195.833,5.58,2.753,8.09,4.789,2.326,1.887,4.849,3.884,6.422,6.476,1.053,1.735,1.612,4.459-.563,5.791-2.63,1.61-.222,5.764,2.423,4.145,2.522-1.544,4.048-4.716,3.873-7.661-.183-3.075-2.081-5.769-4.112-7.951-1.994-2.142-4.332-3.911-6.587-5.763-2.733-2.244-5.72-3.958-9.219-4.673-3.915-.8-7.841-.502-11.761.084-1.283.192-1.99,1.81-1.676,2.952.377,1.374,1.665,1.869,2.952,1.676h0Z"/><path class="g" d="m75.694,265.9c2.045,2.3,4.335,4.402,6.911,6.098,1.051.692,2.7.243,3.284-.861.635-1.202.261-2.545-.861-3.284-.539-.355-1.064-.731-1.576-1.124l.486.375c-1.765-1.367-3.367-2.931-4.849-4.598-.837-.941-2.552-.917-3.394,0-.922,1.004-.892,2.39,0,3.394h0Z"/><path class="g" d="m80.578,258.572c4.248,4.605,8.818,8.795,13.812,12.58,1.005.761,2.728.192,3.284-.861.668-1.265.211-2.471-.861-3.284-.158-.119-.315-.239-.472-.359-.101-.077-.424-.327-.164-.125-.304-.236-.606-.473-.907-.712-.559-.445-1.114-.896-1.663-1.353-1.104-.92-2.185-1.866-3.242-2.839-2.227-2.049-4.34-4.217-6.392-6.441-.853-.925-2.541-.929-3.394,0-.909.99-.91,2.407,0,3.394h0Z"/><path class="g" d="m87.068,251.694c4.449,5.319,9.176,10.28,14.353,14.895.937.835,2.483.993,3.394,0,.838-.913,1.001-2.502,0-3.394-5.177-4.615-9.903-9.576-14.353-14.895-.809-.967-2.57-.897-3.394,0-.944,1.028-.863,2.363,0,3.394h0Z"/><path class="g" d="m81.095,227.754c-5.205.81-10.806,2.188-14.909,5.674-1.9,1.614-3.441,3.823-4.835,5.868-1.555,2.282-2.933,4.755-3.769,7.397-.826,2.609-.729,4.882.911,7.129,1.563,2.142,3.394,3.973,4.565,6.387,1.385,2.852,2.29,5.899,4.096,8.542,1.631,2.386,3.694,4.26,6.064,5.894,1.359.937,2.869,2.089,4.495,2.49,1.547.382,3.138.18,4.579-.469,2.778-1.25,4.735-4.319,3.839-7.38l-4.011,2.335c3.056,2.418,6.653,4.351,10.651,3.033,2.34-.771,6.221-3.248,5.145-6.213l-3.526,2.71c3.203,2.057,7.645,2.872,10.738.129,1.266-1.123,2.118-2.68,1.879-4.399-.262-1.882-1.646-3.294-3.077-4.421l-2.335,4.011c2.785.754,6.158.703,8.234-1.609,1.565-1.744,2.018-4.322.803-6.387-1.094-1.859-2.724-3.515-4.123-5.146-1.306-1.523-2.652-3.012-3.868-4.609-2.018-2.651-3.638-5.56-5.314-8.432-1.556-2.667-5.706-.254-4.145,2.423,1.648,2.825,3.244,5.683,5.214,8.301,1.49,1.98,3.107,3.832,4.718,5.712.839.978,1.674,1.959,2.481,2.964.055.069.634.821.322.403.126.168.255.336.372.511.088.131.172.264.257.397.09.172.07.115-.059-.169.038.11.068.222.09.335-.034-.318-.046-.385-.037-.199.005.09.004.18-.002.27.29-.543-.044.102-.109.271.259-.676-.275.326-.057.042.235-.307-.564.479-.093.12-.093.071-.787.396-.494.291.01-.004-.66.182-.432.143-.838.143-1.679-.043-2.483-.26-2.148-.581-4.306,2.458-2.335,4.011.486.383.996.769,1.399,1.242.128.151.449.582.391.574-.165-.022.014-.389-.008-.463.058.199-.173.233.001.04-.21.232-.358.476-.632.654-1.529.99-3.551-.046-4.873-.895-1.689-1.085-4.242.736-3.526,2.71l-.011-.319c.253-.704.294-.909.121-.613.005.004.033-.012-.059.04-.296.167-.312.297-.67.529-.363.236-.742.433-1.122.639-.233.127-.206.083.021.006-.161.055-.316.102-.483.143-2.108.523-3.979-.655-5.571-1.915-1.743-1.379-4.747-.178-4.011,2.335.097.333.131.243.01.57.115-.309-.333.559-.207.391-.408.54-1.114.943-1.708,1.01-.892.101-1.58-.491-2.326-.963-.994-.629-1.992-1.27-2.909-2.009-1.894-1.526-3.303-3.367-4.412-5.525-1.143-2.225-1.889-4.631-3.05-6.846-1.129-2.154-2.807-3.858-4.257-5.781-.233-.309-.453-.636-.644-.974-.142-.251-.183-.187-.234-.593.048.38.078-.45.105-.585.108-.548.268-1.089.448-1.618.719-2.117,1.925-4.084,3.178-5.923,1.067-1.567,2.233-3.152,3.607-4.467,3.36-3.218,8.849-4.182,13.268-4.869,1.282-.199,1.992-1.805,1.676-2.952-.376-1.368-1.667-1.876-2.952-1.676h0Z"/><path class="f" d="m182.374,272.069c-.56.372-1.12.721-1.665,1.029-1.26.712-4.127,1.542-5.941.504-1.123-.643-1.707-1.702-1.809-2.812-.102.06-.158.093-.158.093-2.436,1.434-6.365,2.153-8.546.244-1.269-1.111-2.037-4.147-.513-6.348.208-.373.498-.776.856-1.204-1.268.497-3.64,1.146-5.009-1.705-.905-1.887-.107-4.808,2.167-6.992.859-.824,2.639-2.932,4.401-4.477.378-.329.762-.656,1.147-.979l-1.6-.238c-1.177.071-2.606-1.018-3.191-2.144-.494-.951-.355-2.446-.011-3.38.802-2.177,4.49-4.562,8.3-6.576,4.072-2.153,6.97-3.007,11.256-3.604,4.039-.398,6.821-.477,10.865.171,3.658.586,6.233,2.287,8.856,4.033,1.582,1.053,4.95,4.639,5.777,6.4,1.493,3.178,2.279,6.138,2.053,9.02-.376,4.785-1.603,7.479-4.591,10.59-1.739,1.81-4.768,4.57-6.728,6.121-2.749,2.175-5.386,2.458-7.305,1.635-1.544-.662-1.717-3.571-1.096-4.723,0,0,.059-.109.118-.218l-.056.039c-.615.431-1.154.807-1.554,1.09-1.406.996-3.722,2.905-6.023,4.431Z"/><path class="g" d="m177.474,249.134c-2.466,1.934-4.864,3.948-7.234,5.997-2.048,1.771-4.166,3.487-6.086,5.398-1.975,1.965-3.769,4.352-3.65,7.283s1.653,5.402,4.457,6.421c2.925,1.064,6.435.211,9.052-1.278,2.684-1.528.269-5.676-2.423-4.145-.891.507-2.096.937-3.016,1.036-.606.065-1.225.053-1.572-.02-.519-.108-.909-.304-1.049-.397-.101-.089-.196-.186-.283-.289.157.199.155.179-.005-.06-.19-.455,0,.131-.158-.323-.217-.628-.26-.833-.197-1.508.075-.804.846-1.84,1.394-2.447,1.955-2.162,4.283-3.985,6.482-5.89,2.517-2.181,5.061-4.33,7.683-6.385,1.021-.801.839-2.555,0-3.394-1.008-1.008-2.371-.803-3.394,0h0Z"/><path class="g" d="m162.958,261.579c-.575.12.479.039-.131.026-.111-.002-.709-.063-.172.04-.057-.011-.603-.113-.323-.068.072.012-.076-.046-.107-.074-.035-.032-.342-.403-.246-.269-.048-.067-.379-.843-.244-.421-.031-.097-.143-.73-.096-.281-.022-.205-.016-.412-.009-.617.014-.167.008-.168-.019-.002l.049-.261c.055-.268.127-.537.22-.794.142-.392.392-.853.692-1.28.513-.73,1.213-1.328,1.821-1.98,3.329-3.572,7.092-6.551,10.965-9.507,1.029-.785,1.572-2.067.861-3.284-.592-1.013-2.247-1.652-3.284-.861-4.8,3.663-9.617,7.344-13.556,11.96-1.9,2.227-3.261,5.482-2.195,8.396,1.121,3.064,3.901,4.563,7.049,3.906,1.269-.265,2.004-1.759,1.676-2.952-.362-1.317-1.679-1.942-2.952-1.676h0Z"/><path class="g" d="m185.516,254.555c-3.193,2.542-6.429,5.032-9.517,7.702-2.818,2.436-6.257,5.534-5.274,9.67,1.076,4.528,6.214,5.299,9.956,3.806,3.446-1.375,6.242-4.129,9.24-6.244,2.838-2.002,5.754-3.912,8.472-6.079,1.014-.809.844-2.55,0-3.394-1.002-1.002-2.377-.811-3.394,0-.073.058-.335.26.023-.013-.09.068-.179.137-.269.204-.234.175-.469.35-.704.522-.548.401-1.1.796-1.653,1.188-1.161.823-2.329,1.636-3.497,2.449-2.386,1.662-4.644,3.496-7.033,5.152-1.26.873-2.426,1.68-3.75,2.009-.929.231-2.192.349-2.647-.522-.127-.243-.155-.608-.087-.912.108-.485.45-.907.749-1.266,1.062-1.277,2.332-2.382,3.591-3.458,2.995-2.559,6.109-4.968,9.19-7.421,1.015-.808.844-2.551,0-3.394-1.003-1.003-2.377-.81-3.394,0h0Z"/><path class="g" d="m165.704,246.783c-.957-.025-1.198-1.141-1.067-1.867.184-1.017,1.292-1.925,2.265-2.658,2.721-2.05,5.961-3.801,9.17-4.94,3.08-1.093,6.303-1.569,9.558-1.71s6.804-.004,9.869,1.225c2.459.986,4.75,2.502,6.37,4.06,1.831,1.761,3.38,3.564,4.276,5.961,1.11,2.971,1.371,5.92.653,9.016-.584,2.52-1.905,4.509-3.694,6.346-1.216,1.249-2.498,2.437-3.799,3.596-1.168,1.04-2.341,2.162-3.713,2.931-1.116.625-2.554,1.036-3.705.495.082.039.213.043.259.143.04.087-.188-.568-.208-.749.035.311.026-.578.021-.504-.029.373.265-.755.001-.192.55-1.173.328-2.588-.861-3.284-1.041-.609-2.731-.318-3.284.861-1.546,3.294-.339,7.705,3.499,8.552,4.287.946,7.767-1.687,10.804-4.345,2.764-2.419,5.738-4.989,7.597-8.204,1.882-3.255,2.66-7.476,2.211-11.194-.478-3.963-2.015-7.627-4.61-10.648-2.267-2.64-4.943-4.726-8.028-6.342-3.934-2.061-8.427-2.651-12.827-2.553-4.257.094-8.606.683-12.585,2.254-2.421.956-4.748,2.145-6.978,3.487-2.014,1.212-4.094,2.587-5.557,4.456-1.353,1.727-1.926,4.089-1.32,6.235.69,2.441,3.178,4.303,5.683,4.37,3.09.082,3.088-4.718,0-4.8h0Z"/><path class="g" d="m59.317,220.891c.239-.103.195-.085-.133.054.099-.041.198-.081.297-.121.175-.07.35-.138.526-.204.38-.143.763-.277,1.149-.403.721-.235,1.45-.442,2.187-.621.72-.175,1.447-.324,2.178-.443.198-.032.417-.039.61-.092-.648.178-.228.031-.037.009.389-.045.779-.079,1.17-.105,1.25-.084,2.461-1.044,2.4-2.4-.055-1.228-1.058-2.49-2.4-2.4-3.6.241-7.067,1.149-10.37,2.58-.514.223-.962.921-1.103,1.434-.158.574-.087,1.339.242,1.849.33.512.822.964,1.434,1.103.671.153,1.224.029,1.849-.242h0Z"/><path class="g" d="m75.447,170.049c.684,11.036,1.537,22.058,3.165,33,.191,1.283,1.811,1.99,2.952,1.676,1.374-.378,1.868-1.665,1.676-2.952-1.564-10.514-2.336-21.121-2.993-31.724-.19-3.069-4.992-3.09-4.8,0h0Z"/><path class="g" d="m183.375,175.219c-.435,14.552-2.194,28.952-3.718,43.415-.136,1.291,1.2,2.4,2.4,2.4,1.411,0,2.264-1.105,2.4-2.4,1.524-14.463,3.282-28.863,3.718-43.415.092-3.09-4.708-3.087-4.8,0h0Z"/><path class="g" d="m96.748,136.753c7.791,5.164,17.396,7.485,26.558,8.631,9.575,1.197,19.329.108,28.575-2.614,4.849-1.428,9.674-3.352,13.876-6.196,2.544-1.722.145-5.882-2.423-4.145-7.104,4.807-15.973,7.092-24.392,8.157-9.067,1.146-18.154.187-26.926-2.334-4.515-1.297-8.916-3.038-12.845-5.643-2.582-1.711-4.989,2.444-2.423,4.145h0Z"/><path class="g" d="m240.568,284.53c1.071-.654,1.86-1.649,2.093-2.897.258-1.384-.211-2.514-.911-3.675-1.06-1.759-2.182-3.481-3.316-5.193-1.21-1.825-2.288-3.842-4.677-4.168-2.023-.276-4.117,1.014-5.919,1.789-1.892.814-3.778,1.651-5.617,2.58-2.556,1.29-3.277,3.902-1.951,6.396,1.138,2.14,2.306,4.264,3.432,6.411.551,1.05,1.022,2.259,1.858,3.118.933.958,2.329,1.36,3.63,1.161,1.101-.168,2.146-.804,3.141-1.294.961-.473,1.917-.956,2.871-1.442,1.796-.915,3.584-1.846,5.366-2.786,1.146-.604,1.495-2.2.861-3.284-.679-1.161-2.133-1.468-3.284-.861-2.502,1.319-5.013,2.624-7.545,3.885-.592.295-1.185.587-1.781.874-.271.13-.74.301-.184.178.112-.025.399.209-.05-.013.038.019.341.147.333.15-.008.002-.986-1.945-1.151-2.26-.456-.869-.915-1.736-1.377-2.601-.435-.815-.872-1.628-1.313-2.44-.22-.406-.439-.812-.662-1.217-.47-.851-.09-.207-.098-.169-.041.205-.036.324-.098.532.071-.238.226-.13.036-.051-.127.053-.274.138.143-.016.344-.127.677-.341,1.007-.502.756-.369,1.519-.723,2.285-1.07,1.316-.596,2.904-1.28,3.969-1.726.287-.12.573-.239.86-.358.122-.051.271-.097.389-.161l.231-.081h-.169c.061-.052.392-.019.058-.025.479.009.111.144.012-.016-.239-.385.158.255.252.396.987,1.472,1.965,2.949,2.918,4.443.474.743.941,1.49,1.396,2.245.094.156.183.323.284.475.314.473.011.094.065-.087.037-.124.093-.221.133-.34-.109.324-.15.083.057-.043-2.633,1.607-.224,5.76,2.423,4.145Z"/><path class="g" d="m225.808,289.192c1.287,2.11,2.979,3.844,5.296,4.78,2.379.962,5.223.815,7.595-.101,2.513-.97,4.392-3.038,5.224-5.595.818-2.513.386-5.281-.772-7.606-.561-1.126-2.244-1.531-3.284-.861-1.152.743-1.461,2.079-.861,3.284.106.213.201.473.062.101.069.184.137.367.195.554.06.194.114.391.159.589.018.078.127.797.101.512-.027-.299.014.363.016.437.006.222.002.443-.013.665-.006.112-.016.224-.029.336.03-.225.03-.25-.001-.075-.07.22-.101.454-.169.676-.033.114-.07.226-.112.337.076-.161.08-.17.014-.029-.107.23-.23.452-.364.667-.056.09-.432.585-.125.21-.133.163-.275.32-.424.469-.146.147-.3.284-.457.418.31-.264-.012,0-.163.095-.164.103-.336.189-.506.281.423-.229-.015.003-.221.073-.457.154-.923.27-1.396.36-.715.136.411,0-.314.034-.24.011-.478.025-.718.022s-.478-.019-.716-.04c.451.04-.272-.06-.307-.068-.198-.045-.393-.099-.586-.162-.202-.066-.531-.233-.158-.047-.348-.174-.668-.369-.997-.574-.452-.282.239.245-.117-.091-.139-.131-.285-.254-.421-.389-.16-.158-.313-.323-.46-.492-.046-.053-.422-.538-.241-.287.182.253-.175-.26-.213-.316-.129-.193-.252-.389-.373-.587-.653-1.072-2.18-1.572-3.284-.861-1.076.694-1.56,2.137-.861,3.284h0Z"/></g></g></svg>